<svg width="189" height="192" viewBox="0 0 189 192" fill="none" xmlns="http://www.w3.org/2000/svg">
<path fill-rule="evenodd" clip-rule="evenodd" d="M189 26.2324C169.161 10.2793 143.948 0.734375 116.5 0.734375C52.5488 0.734375 0.734375 52.5488 0.734375 116.5C0.734375 145.351 11.2803 171.732 28.7289 192H61.5567C38.2684 175.028 23.1406 147.539 23.1406 116.5C23.1406 64.9189 64.9189 23.1406 116.5 23.1406C145.771 23.1406 171.886 36.5947 189 57.6594V26.2324ZM189 175.341C183.896 181.622 177.993 187.227 171.443 192H184C186.761 192 189 189.761 189 187V175.341ZM62.3516 101.562C59.2707 101.562 56.75 104.083 56.75 107.164V125.836C56.75 128.917 59.2707 131.438 62.3516 131.438H116.5V162.713C116.5 167.708 122.522 170.228 126.069 166.681L172.282 120.468C174.476 118.274 174.476 114.726 172.282 112.532L126.069 66.3193C122.522 62.8184 116.5 65.2925 116.5 70.2871V101.562H62.3516Z" fill="white" fill-opacity="0.3"/>
</svg>
