<svg width="189" height="192" viewBox="0 0 189 192" fill="none" xmlns="http://www.w3.org/2000/svg">
<path fill-rule="evenodd" clip-rule="evenodd" d="M188.266 25.4982C168.426 9.54512 143.214 0 115.766 0C51.8145 0 0 51.8145 0 115.766C0 144.617 10.5459 170.998 27.9945 191.266H60.8223C37.534 174.293 22.4062 146.804 22.4062 115.766C22.4062 64.1846 64.1846 22.4062 115.766 22.4062C145.037 22.4062 171.151 35.8604 188.266 56.9251V25.4982ZM188.266 174.606C183.162 180.888 177.258 186.493 170.709 191.266H183.266C186.027 191.266 188.266 189.027 188.266 186.266V174.606ZM61.6172 100.828C58.5363 100.828 56.0156 103.349 56.0156 106.43V125.102C56.0156 128.182 58.5363 130.703 61.6172 130.703H115.766V161.979C115.766 166.973 121.787 169.494 125.335 165.946L171.548 119.733C173.742 117.539 173.742 113.992 171.548 111.798L125.335 65.585C121.787 62.084 115.766 64.558 115.766 69.5527V100.828H61.6172Z" fill="#CCCCCC" fill-opacity="0.2"/>
</svg>
