<svg width="326" height="230" viewBox="0 0 326 230" fill="none" xmlns="http://www.w3.org/2000/svg">
<g clip-path="url(#clip0)">
<g opacity="0.345889">
<path opacity="0.345889" fill-rule="evenodd" clip-rule="evenodd" d="M232.993 158.577C230.062 131.502 72.7964 79.2434 43.6006 104.889C14.4047 130.534 42.4729 178.663 103.657 190.988C164.84 203.313 235.924 185.652 232.993 158.577Z" fill="#12C2E9" fill-opacity="0.67"/>
<path opacity="0.345889" d="M142.453 169.519C142.603 168.2 143.256 166.762 144.407 165.22C145.557 163.68 147.184 162.064 149.242 160.394C153.357 157.053 159.142 153.535 166.119 150.015C180.069 142.976 198.71 135.962 218.098 130.342C237.485 124.723 257.594 120.505 274.477 119.051C282.919 118.324 290.539 118.289 296.851 119.109C303.175 119.931 308.124 121.603 311.286 124.236C324.209 135.002 329.023 151.691 323.855 166.977C318.69 182.254 303.512 196.234 276.239 201.444C248.922 206.663 214.745 204.304 187.725 197.765C174.215 194.495 162.528 190.188 154.396 185.285C150.329 182.832 147.176 180.245 145.124 177.586C143.076 174.932 142.143 172.231 142.453 169.519Z" fill="#A6FFCB" stroke="black"/>
</g>
<g opacity="0.345889">
<path opacity="0.345889" fill-rule="evenodd" clip-rule="evenodd" d="M221.06 140.836C218.023 114.775 55.0514 64.4758 24.7964 89.1599C-5.45865 113.844 23.6278 160.17 87.0312 172.032C150.435 183.895 224.097 166.897 221.06 140.836Z" fill="#F2F2F2"/>
<path opacity="0.345889" fill-rule="evenodd" clip-rule="evenodd" d="M120.331 157.769C123.051 135.63 269.034 92.8981 296.135 113.868C323.237 134.838 316.377 178.946 259.583 189.024C202.789 199.102 117.61 179.909 120.331 157.769Z" fill="#DDE3E9"/>
</g>
<g opacity="0.7">
<g opacity="0.7">
<path opacity="0.7" d="M66.9622 53.7794C74.6914 53.7794 80.9572 51.0297 80.9572 47.6377C80.9572 44.2458 74.6914 41.4961 66.9622 41.4961C59.233 41.4961 52.9673 44.2458 52.9673 47.6377C52.9673 51.0297 59.233 53.7794 66.9622 53.7794Z" fill="#F2F2F2"/>
<path opacity="0.7" fill-rule="evenodd" clip-rule="evenodd" d="M83.2621 51.8687C83.2621 44.331 75.9643 38.2206 66.9621 38.2206C57.9599 38.2206 50.6621 44.331 50.6621 51.8687" fill="#DDE3E9"/>
</g>
<path opacity="0.7" d="M68.2838 0H66.0811V46H68.2838V0Z" fill="#DDE3E9"/>
</g>
<path fill-rule="evenodd" clip-rule="evenodd" d="M46.9116 151.04C47.8155 150.959 48.7802 150.988 49.6208 151.251C51.4082 151.812 51.9163 153.373 51.8918 154.641C51.8653 156.006 51.473 157.497 52.8775 158.597C53.5231 159.103 54.3262 159.49 54.9601 160.005C55.6375 160.555 56.169 161.185 56.5626 161.861C57.2852 163.103 57.6398 164.564 56.9791 165.867C56.3973 167.014 54.9335 168.05 55.2498 169.354C55.5797 170.715 57.4361 171.755 58.5967 172.769C59.9102 173.916 61.1196 175.382 61.3183 176.886C61.5088 178.328 60.6597 179.785 59.3566 180.875C56.7531 183.053 52.8397 184.12 48.8937 184.113C47.2183 184.111 45.3215 184.055 43.8757 183.389C43.4289 183.184 43.1931 182.953 42.9275 182.632C42.6893 182.345 42.3747 182.157 42.0105 181.954C41.2105 181.507 40.6327 180.904 40.2639 180.23C38.8321 177.611 39.9765 174.37 41.9808 172.044C42.4557 171.493 42.8446 170.963 42.6138 170.306C42.3731 169.62 41.7813 169.002 41.2579 168.412C40.7407 167.83 40.1503 167.274 39.746 166.644C39.3226 165.984 39.2034 165.293 39.2782 164.571C39.4188 163.215 40.2111 161.963 41.3328 160.872C42.4132 159.822 43.6818 158.816 43.6847 157.44C43.6878 155.98 42.3678 154.682 42.9301 153.199C43.163 152.584 43.6307 151.954 44.3843 151.586C45.1071 151.233 46.0615 151.117 46.9116 151.04Z" fill="#DDE3E9"/>
<path fill-rule="evenodd" clip-rule="evenodd" d="M46.3212 153.373C46.3381 153.177 46.6527 153.06 46.9003 153.111C47.2262 153.178 47.22 153.403 47.2114 153.604C47.185 154.22 47.3057 154.819 47.5062 155.417C47.9228 156.66 48.6929 157.806 49.303 159C49.9126 160.194 50.1987 161.426 49.8411 162.689C49.504 163.879 48.9744 165.039 48.6294 166.231C48.3253 167.282 48.0018 168.39 48.4649 169.438C48.9105 170.447 49.8956 171.268 50.605 172.18C52.0735 174.067 52.725 176.161 52.8122 178.315C52.8526 179.316 52.8162 180.325 52.5021 181.307C52.3214 181.872 52.0785 182.635 51.4233 183.025C51.1212 183.205 50.6045 183.267 50.3503 183.001C50.1116 182.751 50.321 182.364 50.3968 182.098C50.725 180.945 50.791 179.767 50.7124 178.597C50.6364 177.463 50.4551 176.331 49.9723 175.248C49.5241 174.243 48.8433 173.34 48.042 172.461C47.2255 171.566 46.3767 170.668 46.0393 169.606C45.6965 168.528 45.975 167.431 46.3473 166.374C46.7411 165.255 47.2569 164.169 47.7902 163.081C48.3098 162.02 48.494 161.017 48.2071 159.907C47.6404 157.714 46.1235 155.656 46.3212 153.373Z" fill="#C5CFD6"/>
<path fill-rule="evenodd" clip-rule="evenodd" d="M70.777 153.701C71.8956 153.952 73.0065 154.357 73.8038 154.992C75.4992 156.342 74.979 158.383 74.0431 159.874C73.0357 161.478 71.5091 163.091 72.3697 164.932C72.7652 165.778 73.4303 166.544 73.8056 167.397C74.2065 168.309 74.3795 169.258 74.3574 170.209C74.3166 171.955 73.6879 173.819 71.9811 175.106C70.4782 176.239 68.0209 176.901 67.4589 178.565C66.8726 180.301 68.3059 182.245 68.9423 183.89C69.6626 185.751 70.0326 187.95 69.1898 189.805C68.3822 191.583 66.3436 192.981 64.0359 193.769C59.4249 195.343 54.0714 195.101 49.4479 193.576C47.4849 192.928 45.3001 192.133 44.0802 190.79C43.7032 190.375 43.5917 190.012 43.5095 189.53C43.4359 189.099 43.2006 188.756 42.9191 188.376C42.3004 187.54 42.0536 186.605 42.1034 185.666C42.2974 182.017 45.9573 178.625 49.9718 176.645C50.923 176.175 51.7583 175.698 51.9575 174.832C52.1655 173.929 51.9138 172.97 51.7214 172.072C51.5314 171.184 51.2363 170.3 51.2126 169.399C51.188 168.456 51.5423 167.593 52.1464 166.768C53.2815 165.218 55.1059 164.042 57.2018 163.184C59.2205 162.356 61.4275 161.655 62.4155 160.028C63.4627 158.304 62.8429 156.261 64.5635 154.723C65.2759 154.086 66.2752 153.52 67.4226 153.374C68.523 153.235 69.7251 153.465 70.777 153.701Z" fill="#DDE3E9"/>
<path fill-rule="evenodd" clip-rule="evenodd" d="M68.4917 156.552C68.6504 156.327 69.1015 156.31 69.3548 156.466C69.6882 156.672 69.5214 156.936 69.3692 157.17C68.9016 157.89 68.6183 158.646 68.4289 159.432C68.035 161.066 68.1236 162.721 67.9905 164.372C67.8576 166.021 67.319 167.591 66.006 168.948C64.7681 170.227 63.327 171.395 62.0788 172.674C60.9786 173.8 59.8151 174.987 59.6139 176.407C59.42 177.775 59.9898 179.129 60.1732 180.483C60.553 183.287 59.8312 186.019 58.4062 188.604C57.7445 189.804 56.9864 190.986 55.9239 192.026C55.3121 192.626 54.4869 193.436 53.4445 193.644C52.9637 193.74 52.3155 193.613 52.207 193.199C52.1049 192.811 52.6239 192.434 52.9012 192.148C54.1019 190.91 55.014 189.541 55.7516 188.124C56.4662 186.752 57.0564 185.341 57.2591 183.872C57.4472 182.508 57.2908 181.175 56.9768 179.824C56.6569 178.447 56.3005 177.055 56.6583 175.667C57.0214 174.258 58.1244 173.067 59.3092 171.959C60.5624 170.786 61.9354 169.7 63.3301 168.618C64.6892 167.563 65.6156 166.446 66.0666 165.021C66.9578 162.205 66.6425 159.18 68.4917 156.552Z" fill="#C5CFD6"/>
<path fill-rule="evenodd" clip-rule="evenodd" d="M36.1985 164.059C38.0584 164.059 39.6935 164.787 40.8202 165.821C42.1391 167.032 42.4055 168.51 42.9411 169.952C43.2076 170.67 43.6659 171.383 44.4692 171.87C45.1998 172.314 46.1272 172.403 47.0017 172.619C48.7494 173.052 50.1606 174.096 50.7179 175.369C51.3979 176.921 50.6777 178.487 50.8017 180.061C50.9155 181.506 52.8436 182.408 54.3949 183.1C55.9245 183.784 57.3025 184.423 57.7632 185.754C58.2517 187.165 58.4156 188.741 57.7389 190.135C56.6124 192.457 53.3153 193.479 50.1295 193.638C47.2383 193.781 43.6029 193.556 41.4316 192.005C40.1323 191.077 39.6618 189.778 39.7202 188.487C39.7565 187.684 39.9717 186.888 40.25 186.112C40.4473 185.562 40.7138 185.015 40.7897 184.446C40.9915 182.934 39.1004 182.644 37.4907 182.228C35.4451 181.701 34.0131 180.704 33.0173 179.316C32.0899 178.023 31.7008 176.572 32.2568 175.148C32.5407 174.421 33.0557 173.762 33.7541 173.201C34.0615 172.954 34.4948 172.748 34.7723 172.489C35.0313 172.247 34.975 171.933 34.8857 171.649C34.473 170.339 33.187 169.254 32.7272 167.946C32.312 166.765 32.5574 165.296 34.018 164.534C34.649 164.205 35.4272 164.062 36.1985 164.059Z" fill="#C5CFD6"/>
<path fill-rule="evenodd" clip-rule="evenodd" d="M38.7329 167.473C40.7041 169.025 41.2399 171.13 41.3972 173.171C41.4853 174.316 41.3936 175.523 41.8485 176.632C42.2377 177.582 43.1503 178.309 44.0909 178.995C45.9842 180.377 48.0958 181.781 48.6496 183.781C48.9746 184.954 48.7552 186.166 49.2042 187.327C49.6125 188.382 50.3313 189.418 51.2056 190.309C51.9096 191.026 52.8268 191.576 53.5963 192.244C53.8311 192.448 54.1674 192.749 54.0705 193.037C53.9571 193.375 53.3755 193.481 52.9628 193.428C52.0006 193.305 51.1907 192.626 50.5616 192.132C49.6416 191.41 48.8599 190.634 48.2245 189.763C47.5191 188.796 46.9512 187.77 46.7085 186.685C46.4567 185.559 46.582 184.386 46.007 183.306C45.0393 181.488 42.6923 180.415 40.9954 178.998C38.8812 177.233 39.1965 175.036 39.413 172.864C39.532 171.671 39.6502 170.323 38.8343 169.233C38.5228 168.817 37.8283 168.43 37.6944 167.957C37.5718 167.524 38.2413 167.086 38.7329 167.473Z" fill="#AFB9C5"/>
<path fill-rule="evenodd" clip-rule="evenodd" d="M40.835 192.975C40.8351 201.85 42.7948 206.5 53.1409 206.5C63.487 206.5 65.4468 201.85 65.4468 192.975H40.835Z" fill="#89C5CC"/>
<path fill-rule="evenodd" clip-rule="evenodd" d="M107.386 92.7284C105.523 90.5441 104.261 87.8672 104.472 84.8677C105.079 76.2252 117.127 78.1264 119.47 82.4884C121.814 86.8504 121.535 97.9149 118.507 98.6945C117.299 99.0054 114.726 98.2438 112.107 96.6676L113.5 102H106L107.386 92.7284Z" fill="#B28B67"/>
<path fill-rule="evenodd" clip-rule="evenodd" d="M112.822 85.792C113.204 90.9402 114.213 93.5142 115.85 93.5142C118.305 93.5142 120.388 92.0042 121.465 92.0042C122.25 92.0042 122.075 92.9563 121.554 93.6622C121.125 94.2446 119.034 94.806 119.034 95.7089C119.034 96.6118 120.686 95.9133 120.686 96.4488C120.686 97.3346 120.976 99 119.39 99C117.784 99 113.179 98.433 112.39 96.1238C111.881 94.6335 111.552 91.5454 111.402 86.8594C111.305 86.8482 111.206 86.8424 111.105 86.8424C109.729 86.8424 108.614 87.9231 108.614 89.2561C108.614 89.9329 108.901 90.5446 109.364 90.9828C108.788 91.7712 108.142 92.5947 107.401 93.4445C104.62 91.8278 102.556 87.0954 105.275 82.5493C106.027 80.3222 107.728 79.1326 109.738 78.5802C111.366 77.9206 113.055 77.8462 114.482 78.2416C117.278 78.474 119.775 79.3001 120.482 79.7906C120.482 82.3553 119.97 83.1162 115.588 83.0492C114.512 83.6 113.684 84.5485 112.822 85.792Z" fill="#191847"/>
<g clip-path="url(#clip1)">
<path fill-rule="evenodd" clip-rule="evenodd" d="M101.479 121L114.738 166.248L124.412 199.598H131.467L121.188 121H101.479Z" fill="#191847"/>
<path fill-rule="evenodd" clip-rule="evenodd" d="M97.9338 121C97.6271 144.321 96.5814 157.041 96.2594 159.16C95.9374 161.279 91.0687 174.759 81.6533 199.598H88.9624C100.949 175.769 107.64 162.289 109.036 159.16C110.432 156.031 114.74 143.311 121.228 121H97.9338Z" fill="#2F3676"/>
<path fill-rule="evenodd" clip-rule="evenodd" d="M81 206L81.3657 198.531H89.0455C92.6871 201.021 97.4413 203.036 103.308 204.577V206H89.4112L84.6571 205.289V206H81Z" fill="#191847"/>
<path fill-rule="evenodd" clip-rule="evenodd" d="M123.422 206L123.788 198.531H131.467C135.109 201.021 139.863 203.036 145.73 204.577V206H131.833L127.079 205.289V206H123.422Z" fill="#191847"/>
<path fill-rule="evenodd" clip-rule="evenodd" d="M132.328 123.149L143.368 117.788C145.302 115.657 147.17 114.037 148.971 112.929C149.51 112.74 150.43 112.682 149.448 114.268C148.466 115.853 147.498 117.57 147.89 118.125C148.283 118.681 149.419 118.068 149.868 118.971C150.167 119.574 148.252 120.294 144.122 121.133L135.853 128.143L132.328 123.149ZM87.6939 124.626L93.9375 125.995C87.6585 138.934 84.2912 145.792 83.8356 146.568C82.8104 148.315 83.7669 151.516 84.1203 153.202C81.9037 153.772 82.7778 150.083 79.9728 150.854C77.4125 151.557 75.2417 153.361 72.8543 150.928C72.5608 150.628 72.3459 149.693 73.3467 149.214C75.8399 148.019 79.5234 145.782 80.1206 144.913C80.9351 143.729 83.4596 136.966 87.6939 124.626Z" fill="#B28B67"/>
<path fill-rule="evenodd" clip-rule="evenodd" d="M110.907 98.7963L113.542 98.2966C119.28 104.452 121.622 119.239 125.446 121.197C129.062 123.047 134.188 121.257 140.28 118.839L142.146 123.448C136.611 130.07 124.817 135.665 120.037 132.471C112.394 127.365 110.63 109.126 110.907 98.7963Z" fill="#DB2721"/>
<path fill-rule="evenodd" clip-rule="evenodd" d="M99.4219 135.406C109.986 135.406 117.757 135.406 122.734 135.406C123.799 135.406 123.598 133.706 123.444 132.847C121.667 122.942 114.73 112.265 114.73 98.1659L108.005 97C102.444 106.891 100.52 119.068 99.4219 135.406Z" fill="#DDE3E9"/>
<path fill-rule="evenodd" clip-rule="evenodd" d="M97.0967 125.378C92.3444 134.857 88.3498 141.681 85.113 145.85L80.2266 144.792C83.3742 123.208 92.4892 107.277 107.572 97H107.648L110.234 97C116.271 119.753 117.935 134.914 115.227 142.481H94.2422C94.5742 136.944 95.6387 131.088 97.0967 125.378H97.0967Z" fill="#FF4133"/>
</g>
<path d="M185.265 121.205L181.515 120.095C181.081 119.968 180.778 119.557 180.778 119.1C180.778 118.527 181.237 118.062 181.803 118.062H184.105C184.528 118.062 184.945 118.193 185.292 118.432C185.504 118.576 185.789 118.541 185.969 118.361L187.178 117.166C187.424 116.923 187.39 116.519 187.115 116.305C186.265 115.63 185.202 115.254 184.112 115.25V113.562C184.112 113.253 183.862 113 183.556 113H182.445C182.14 113 181.89 113.253 181.89 113.562V115.25H181.803C179.591 115.25 177.813 117.173 178.018 119.455C178.164 121.075 179.386 122.394 180.928 122.851L184.487 123.905C184.921 124.036 185.223 124.443 185.223 124.9C185.223 125.473 184.765 125.938 184.199 125.938H181.897C181.473 125.938 181.056 125.807 180.709 125.568C180.497 125.424 180.212 125.459 180.032 125.639L178.824 126.834C178.577 127.077 178.612 127.481 178.886 127.695C179.737 128.37 180.799 128.746 181.89 128.75V130.438C181.89 130.747 182.14 131 182.445 131H183.556C183.862 131 184.112 130.747 184.112 130.438V128.743C185.73 128.711 187.247 127.738 187.782 126.187C188.528 124.021 187.275 121.8 185.265 121.205Z" fill="#CCCCCC"/>
<path d="M171.997 122.434L168 124.724L164 122.434L168 116L171.997 122.434ZM168 125.459L164 123.169L168 128.632L172 123.169L168 125.459Z" fill="#CCCCCC"/>
<path d="M299.243 167.706H284.265C283.778 167.706 283.384 168.009 283.384 168.382V170.074C283.384 170.447 283.778 170.75 284.265 170.75H299.243C299.73 170.75 300.124 170.447 300.124 170.074V168.382C300.124 168.009 299.73 167.706 299.243 167.706Z" fill="#AFB9C5"/>
<path fill-rule="evenodd" clip-rule="evenodd" d="M287.789 157.897C289.68 153.191 290.74 148.23 290.968 143.015H292.195H292.98C293.208 148.23 294.268 153.191 296.159 157.897H299.023C302.794 157.897 305.851 160.244 305.851 163.14C305.851 166.035 302.794 168.382 299.023 168.382H284.485C280.714 168.382 277.657 166.035 277.657 163.14C277.657 160.244 280.714 157.897 284.485 157.897H287.789Z" fill="#DDE3E9"/>
<path fill-rule="evenodd" clip-rule="evenodd" d="M276.169 119.568C281.217 119.189 286.265 119 291.313 119C296.362 119 301.41 119.189 306.458 119.568L308.494 146.442C302.767 146.863 297.04 147.074 291.313 147.074C285.586 147.074 279.859 146.863 274.132 146.442L276.169 119.568Z" fill="#C5CFD6"/>
<path fill-rule="evenodd" clip-rule="evenodd" d="M273.251 170.75H309.816H319.068V205.926H309.816V178.191H273.251V205.926H264V170.75H273.251Z" fill="#F2F2F2"/>
<path fill-rule="evenodd" clip-rule="evenodd" d="M216.87 121.814L205.638 120.099C203.407 118.816 201.35 117.939 199.466 117.466C198.934 117.442 198.084 117.62 199.327 118.686C200.571 119.753 201.832 120.93 201.598 121.484C201.363 122.038 200.194 121.811 199.985 122.666C199.846 123.236 201.748 123.36 205.692 123.04L214.766 126.793L216.87 121.814ZM252.189 124.998L245.945 124.916C252.534 140.343 255.969 148.42 256.25 149.148C256.883 150.784 255.445 153.235 254.826 154.555C256.756 155.453 256.602 152.246 259.036 153.422C261.258 154.495 262.93 156.399 265.543 154.856C265.864 154.666 266.225 153.938 265.393 153.35C263.319 151.885 260.338 149.332 259.943 148.502C259.405 147.369 256.82 139.534 252.189 124.998Z" fill="#997659"/>
<path fill-rule="evenodd" clip-rule="evenodd" d="M235.418 105.03L230.525 105.271C229.139 116.077 222.467 122.804 207.824 120.243L205.639 134.151C219.332 136.144 231.458 130.886 234.173 116.143C234.876 112.326 235.447 108.352 235.418 105.03Z" fill="#AFB9C5"/>
<path fill-rule="evenodd" clip-rule="evenodd" d="M237.854 103.658L230.419 105.219C230.207 117.881 226.013 125.891 223.776 135.165L243.778 135.501C244.006 138.722 244.124 142.031 244.157 145.428L259.134 145.679C256.042 127.674 249.111 113.668 238.343 103.661L237.858 103.653L237.854 103.658Z" fill="#C5CFD6"/>
<path fill-rule="evenodd" clip-rule="evenodd" d="M240.925 117.384C241.308 125.283 240.904 131.299 239.712 135.432L243.778 135.5C243.327 129.119 242.443 123.081 240.925 117.384L240.925 117.384Z" fill="black" fill-opacity="0.1"/>
<g clip-path="url(#clip2)">
<path fill-rule="evenodd" clip-rule="evenodd" d="M235.974 96.5738C237.781 94.9069 239.127 92.759 239.258 90.1849C239.635 82.7685 229.218 83.1464 226.78 86.6168C224.342 90.0873 223.436 99.5308 225.925 100.506C226.917 100.895 229.179 100.512 231.563 99.4398L230.74 106.224L237.578 104.032L235.974 96.5738Z" fill="#B28B67"/>
<path fill-rule="evenodd" clip-rule="evenodd" d="M231.992 82.9084C233.099 82.8618 236.036 83.0937 236.574 83.1592C236.919 83.2009 237.282 83.325 237.525 83.0331C237.723 82.794 237.715 82.3479 237.802 82.053C237.902 81.7104 238.026 81.3753 238.151 81.0411C238.506 80.0903 238.977 79.2018 239.584 78.3876C240.723 76.8601 242.255 75.7412 244.083 75.2038C246.102 74.6104 248.296 74.6846 250.339 75.1026C252.526 75.5498 254.437 76.5226 256.438 77.4628C258.346 78.3587 260.396 78.8689 262.513 78.8013C264.646 78.7331 266.366 77.7883 268.263 76.9237C270.205 76.0385 272.359 75.5667 274.476 75.9921C276.453 76.3893 278.192 77.4375 279.708 78.74C281.126 79.9587 282.249 81.354 282.757 83.1877C283.302 85.1602 283.051 87.2222 281.578 88.7281C279.442 90.911 275.943 91.118 273.103 90.7107C271.46 90.4751 269.879 89.9777 268.39 89.2411C266.405 88.2588 264.763 86.8028 262.944 85.5626C262.091 84.9806 261.197 84.4791 260.244 84.0804C259.319 83.6935 258.391 83.4549 257.454 83.929C256.463 84.4306 255.568 84.9329 254.473 85.1893C253.422 85.4352 252.331 85.5118 251.259 85.3734C249.175 85.1042 247.198 84.2036 245.225 83.5217C243.616 82.9657 241.891 82.3969 240.165 82.5343C239.445 82.5917 238.382 82.7616 238.04 83.4625C242.218 84.7565 243.254 90.253 241.578 93.9924C240.674 96.0106 236.468 97.9881 235.083 96.7012C234.205 95.886 234.9 95.0399 235.352 94.4805C236.217 93.4091 236.646 91.9501 235.403 90.9805C234.332 90.1442 232.916 91.6497 232.893 91.6451C232.578 91.5814 230.021 89.6931 228.405 87.1941C226.525 87.0785 226.392 85.8117 226.96 84.8579C227.528 83.904 230.463 82.9729 231.992 82.9084Z" fill="#191847"/>
</g>
<g clip-path="url(#clip3)">
<path d="M163.5 87.2499H163V86.7499V83.4687C163 83.0444 162.658 82.633 162.017 82.4315C161.39 82.2341 160.645 82.308 160.122 82.7065L152.934 88.1752C152.62 88.4147 152.5 88.695 152.5 88.9374C152.5 89.1799 152.62 89.4601 152.934 89.6996L160.122 95.1683C160.643 95.5649 161.388 95.6403 162.016 95.4438C162.657 95.2435 163 94.8331 163 94.4062V91.1249V90.6249H163.5H195.844C196.34 90.6249 196.77 90.4714 197.066 90.2465C197.361 90.0219 197.5 89.7478 197.5 89.4843V88.3906C197.5 88.1271 197.361 87.853 197.066 87.6284C196.77 87.4035 196.34 87.2499 195.844 87.2499H163.5ZM187 99.8749V100.375H186.5H154.156C153.66 100.375 153.23 100.528 152.934 100.753C152.639 100.978 152.5 101.252 152.5 101.516V102.609C152.5 102.873 152.639 103.147 152.934 103.371C153.23 103.596 153.66 103.75 154.156 103.75H186.5H187V104.25V107.531C187 107.958 187.343 108.368 187.984 108.569C188.612 108.765 189.356 108.69 189.878 108.293C189.878 108.293 189.878 108.293 189.878 108.293L197.066 102.825C197.38 102.585 197.5 102.305 197.5 102.062C197.5 101.82 197.38 101.54 197.066 101.3C197.066 101.3 197.066 101.3 197.066 101.3L189.878 95.8315C189.353 95.4318 188.609 95.3587 187.982 95.5567C187.342 95.7589 187 96.1709 187 96.5937V99.8749Z" fill="#CCCCCC" stroke="#CCCCCC"/>
</g>
<rect x="157" y="68.8136" width="28" height="1" fill="#C4C4C4"/>
<rect x="183.695" y="69.8875" width="28.8712" height="0.993803" transform="rotate(-75 183.695 69.8875)" fill="#C4C4C4"/>
<path d="M273.889 48.249C263.457 48.249 255 39.9105 255 29.6245C255 19.3385 263.457 11 273.889 11C284.321 11 292.778 19.3385 292.778 29.6245C292.778 39.9105 284.321 48.249 273.889 48.249Z" fill="#F2F2F2"/>
<path d="M273.888 15.9196C273.298 15.9196 272.819 15.4476 272.819 14.8654C272.819 14.2832 273.298 13.8113 273.888 13.8113C274.479 13.8113 274.958 14.2832 274.958 14.8654C274.958 15.4476 274.479 15.9196 273.888 15.9196Z" fill="black" fill-opacity="0.1"/>
<path d="M288.858 30.6787C288.267 30.6787 287.788 30.2067 287.788 29.6245C287.788 29.0422 288.267 28.5702 288.858 28.5702C289.448 28.5702 289.927 29.0422 289.927 29.6245C289.927 30.2067 289.448 30.6787 288.858 30.6787Z" fill="black" fill-opacity="0.1"/>
<path d="M258.92 30.6787C258.33 30.6787 257.851 30.2067 257.851 29.6245C257.851 29.0422 258.33 28.5702 258.92 28.5702C259.511 28.5702 259.989 29.0422 259.989 29.6245C259.989 30.2067 259.511 30.6787 258.92 30.6787Z" fill="black" fill-opacity="0.1"/>
<path d="M273.888 45.4379C273.298 45.4379 272.819 44.9659 272.819 44.3837C272.819 43.8014 273.298 43.3295 273.888 43.3295C274.479 43.3295 274.958 43.8014 274.958 44.3837C274.958 44.9659 274.479 45.4379 273.888 45.4379Z" fill="black" fill-opacity="0.1"/>
<path fill-rule="evenodd" clip-rule="evenodd" d="M273.889 16.9739L273.176 29.2732H274.602L273.889 16.9739Z" fill="#AFB9C5"/>
<path fill-rule="evenodd" clip-rule="evenodd" d="M267.581 35.8439L274.133 30.3774L273.125 29.3834L267.581 35.8439Z" fill="#AFB9C5"/>
<path d="M273.888 31.0302C273.101 31.0302 272.463 30.4008 272.463 29.6245C272.463 28.8482 273.101 28.2189 273.888 28.2189C274.676 28.2189 275.314 28.8482 275.314 29.6245C275.314 30.4008 274.676 31.0302 273.888 31.0302Z" fill="#C5CFD6"/>
<path fill-rule="evenodd" clip-rule="evenodd" d="M239.634 135L228.767 172.498L223.655 200.653H218.525L223.646 135H239.634Z" fill="#997659"/>
<path fill-rule="evenodd" clip-rule="evenodd" d="M244.517 135C243.759 154.48 244.058 165.105 244.228 166.875C244.398 168.645 245.361 180.498 251.926 201.247H246.59C237.896 181.342 234.86 169.489 233.863 166.875C232.866 164.261 229.921 153.636 225.621 135H244.517Z" fill="#B28B67"/>
<path fill-rule="evenodd" clip-rule="evenodd" d="M239.867 135C237.04 147.903 232.151 168.5 225.2 196.791H217.697C217.142 167.753 219.5 148.642 223.583 135H239.867Z" fill="#69A1AC"/>
<path fill-rule="evenodd" clip-rule="evenodd" d="M244.555 135C243.813 154.48 245.737 173.672 251.699 197.094H243.693C234.982 177.486 228.739 158.389 224.472 135H244.555Z" fill="#89C5CC"/>
<path fill-rule="evenodd" clip-rule="evenodd" d="M252.687 205.109L252.393 200.356C250.669 200.86 248.51 200.662 245.915 199.761C243.126 201.74 239.614 203.091 235.38 203.815L235.38 203.815C235.057 203.87 234.84 204.177 234.895 204.5C234.899 204.521 234.903 204.542 234.909 204.563L235.316 206H245.915H252.098L252.687 205.109Z" fill="#191847"/>
<path fill-rule="evenodd" clip-rule="evenodd" d="M224.8 205.109L224.506 200.356C222.782 200.86 220.623 200.662 218.029 199.761C215.239 201.74 211.727 203.091 207.494 203.815L207.494 203.815C207.171 203.87 206.953 204.177 207.009 204.5C207.012 204.521 207.017 204.542 207.023 204.563L207.43 206H218.029H224.211L224.8 205.109Z" fill="#191847"/>
</g>
<defs>
<clipPath id="clip0">
<rect width="326" height="230" fill="white"/>
</clipPath>
<clipPath id="clip1">
<rect width="131" height="104" fill="white" transform="translate(37 102)"/>
</clipPath>
<clipPath id="clip2">
<rect width="47" height="36" fill="white" transform="matrix(-0.992721 -0.120435 -0.120435 0.992721 260.065 76.6605)"/>
</clipPath>
<clipPath id="clip3">
<rect width="46" height="35" fill="white" transform="translate(152 78)"/>
</clipPath>
</defs>
</svg>
