<svg width="329" height="228" viewBox="0 0 329 228" fill="none" xmlns="http://www.w3.org/2000/svg">
<g clip-path="url(#clip0)">
<g opacity="0.504511">
<path opacity="0.504511" fill-rule="evenodd" clip-rule="evenodd" d="M304.619 164.561C308.705 187.609 209.62 202.643 124.335 192.151C39.051 181.659 -0.0734081 140.689 40.6229 118.858C81.3192 97.0274 300.533 141.513 304.619 164.561Z" fill="#F2F2F2"/>
</g>
<path fill-rule="evenodd" clip-rule="evenodd" d="M184.152 58.0535C181.966 57.2362 179.053 58.1841 180.268 60.3447C181.57 62.6583 186.384 62.6869 189.102 62.6411C188.83 62.6303 187.954 60.5086 187.654 60.188C186.769 59.2423 185.496 58.5569 184.152 58.0535ZM209.333 99.535C209.884 99.8906 209.378 99.5684 209.333 99.535V99.535ZM182.047 68.5182C180.768 69.2555 180.707 70.5573 181.751 71.4385C182.995 72.4874 185.267 72.4492 186.963 72.347C187.73 72.3007 191.825 72.0534 190.854 71.548C190.929 71.5692 191.085 71.6209 191.252 71.691C191.342 71.9385 191.436 72.1852 191.534 72.4307C191.51 72.4413 191.49 72.4527 191.464 72.4633C191.492 72.4541 191.511 72.4441 191.536 72.4348C192.521 74.8888 193.923 77.2255 195.759 79.4116C195.072 79.2076 194.36 79.0532 193.639 78.9845C191.502 78.7807 187.007 80.0329 189.397 82.1783C191.689 84.2351 195.257 82.0285 197.858 81.7242C200.38 84.3795 203.162 86.9241 206.077 89.3837C205.898 89.4259 205.741 89.5138 205.651 89.6507C204.482 89.2033 203.263 88.5632 202.181 88.3899C200.62 88.1402 197.417 87.9888 196.237 89.043C194.785 90.3393 196.341 91.3922 198.057 91.6408C200.544 92.0014 203.799 91.085 206.192 90.4658C206.466 90.5023 206.765 90.4419 206.943 90.2768C206.996 90.2637 207.049 90.2509 207.101 90.2384C210.052 92.686 213.117 95.0528 216.163 97.3678C216.131 97.3665 216.098 97.365 216.065 97.3636C215.27 96.9706 214.418 96.6482 213.494 96.4792C211.357 96.0864 208.842 96.0845 207.108 97.2507C205.381 98.4118 204.769 100.443 206.556 101.747C210.133 104.357 215.404 98.4055 217.208 98.1571C220.304 100.485 223.577 102.66 226.902 104.791C226.524 104.704 226.137 104.64 225.737 104.612C222.477 104.376 214.824 107.391 218.825 110.356C222.312 112.941 226.347 107.967 229.157 106.227C232.29 108.213 235.44 110.186 238.502 112.235C236.832 111.901 235.218 111.852 233.428 112.26C231.576 112.682 228.587 113.737 229.758 115.623C230.949 117.541 234.538 116.668 236.407 116.059C237.427 115.727 239.471 114.606 241.266 114.134C246.151 117.612 250.382 121.444 253.586 125.957C255.586 128.775 257.104 131.785 258.172 134.88C258.854 136.855 260.197 140.172 259.928 142.742C261.21 137.597 258.892 131.417 256.395 126.818C254.099 122.589 250.663 118.876 246.638 115.534C247.648 113.243 256.149 109.939 251.067 107.81C248.368 106.685 245.604 108.552 245.014 110.53C244.609 111.889 245.226 113.597 245.882 114.916C244.615 113.897 243.299 112.912 241.943 111.958C240.069 110.641 238.149 109.362 236.212 108.099C239.405 105.836 242.426 99.3692 238.145 98.3115C231.823 96.7541 234.867 105.576 235.308 107.229C235.434 107.234 235.531 107.206 235.603 107.145C235.567 107.296 235.526 107.458 235.476 107.621C231.768 105.216 228.004 102.859 224.364 100.396C224.692 100.214 225.214 99.5152 225.623 99.1435C226.548 98.3055 227.433 97.4301 228.079 96.4497C229.1 94.9005 230.085 92.4293 227.378 91.5181C224.434 90.5252 223.035 93.3201 223.014 94.9874C223 96.1406 223.417 97.236 223.634 98.3663C223.701 98.7188 223.44 100.308 224.077 99.6242C224.047 99.8762 224.043 100.059 224.058 100.188C223.404 99.7439 222.756 99.2948 222.112 98.8424C222.141 98.7853 222.163 98.723 222.168 98.6508C222.203 98.1537 221.54 97.9623 221.075 98.1079C220.225 97.4986 219.383 96.8816 218.556 96.2524C216.803 94.9194 215.026 93.5483 213.26 92.1481C213.643 91.8999 213.491 91.5562 213.849 91.2928C214.207 91.0299 214.911 90.8845 215.332 90.6403C216.389 90.0258 217.267 89.1306 217.901 88.2495C218.948 86.7937 220.302 83.7397 217.242 83.0459C214.089 82.3295 212.488 85.2693 212.285 87.1073C212.246 87.4633 212.599 90.6717 212.87 91.8367C209.603 89.2343 206.39 86.5343 203.479 83.7873C204.362 83.7812 206.864 82.4174 207.37 82.0452C208.604 81.1376 210.566 79.1319 208.402 78.0706C206.478 77.1292 204.106 78.4927 203.284 79.8178C203.148 80.036 202.671 82.0669 202.634 82.9781C201.429 81.8132 200.28 80.6415 199.211 79.4659C198.498 78.6844 197.831 77.8822 197.208 77.063C197.358 76.9988 197.499 76.8869 197.632 76.7478C200.842 76.3371 204.933 72.561 201.164 71.2471C199.369 70.6224 197.423 71.912 196.544 72.9678C196.363 73.1838 196.072 74.2697 195.834 75.1263C194.041 72.4123 192.67 69.539 191.627 66.5931C191.906 66.5408 192.142 66.3798 192.174 66.103C193.732 65.4331 194.962 64.8754 196.05 63.5872C196.725 62.7871 197.942 60.9591 195.957 60.515C193.373 59.9372 191.75 62.9134 191.539 64.3793C191.514 64.5494 191.515 65.0443 191.524 65.4978C191.434 65.4886 191.343 65.4897 191.254 65.5015C190.661 63.6773 190.187 61.8297 189.811 59.9789C191.221 59.6366 191.465 54.0513 190.526 53.256C188.427 51.4752 186.946 54.0476 187.058 55.4072C187.191 57.0102 188.154 58.4684 189.301 59.7626C189.424 59.8996 189.389 59.893 189.421 59.7021C189.438 59.7964 189.48 59.8661 189.542 59.9165C189.483 60.7604 189.368 61.6243 189.423 62.371C189.582 64.5093 189.912 66.66 190.392 68.7708C190.508 69.2842 190.642 69.7934 190.792 70.2981C189.658 69.5699 188.13 68.9229 187.532 68.7205C185.98 68.1959 183.588 67.6294 182.047 68.5182ZM260.11 142.75C260.038 143.495 259.86 144.178 259.527 144.741C259.777 144.1 259.968 143.434 260.11 142.75Z" fill="#F2F2F2"/>
<path opacity="0.2" fill-rule="evenodd" clip-rule="evenodd" d="M103.242 13.2258C104.803 12.642 106.884 13.3191 106.016 14.8624C105.086 16.515 101.648 16.5354 99.7064 16.5026C99.9008 16.495 100.527 14.9795 100.741 14.7505C101.373 14.0749 102.283 13.5854 103.242 13.2258ZM85.2678 43.3376C84.7164 43.6932 85.2229 43.371 85.2678 43.3376V43.3376ZM105.057 20.8987C105.99 21.4315 106.034 22.3728 105.271 23.0102C104.362 23.7691 102.703 23.7421 101.465 23.6686C100.905 23.6354 97.9151 23.4577 98.6242 23.0919C98.5697 23.1073 98.4558 23.1447 98.3339 23.1955C98.2682 23.3745 98.1992 23.5528 98.1273 23.7304C98.1449 23.7381 98.1599 23.7463 98.1787 23.7539C98.1583 23.7473 98.144 23.7401 98.1261 23.7333C97.4058 25.5081 96.381 27.1982 95.0396 28.7794C95.5412 28.6318 96.0607 28.5199 96.5875 28.47C98.1476 28.3221 101.429 29.2263 99.6828 30.7783C98.0085 32.2662 95.4047 30.6716 93.5059 30.4523C91.6627 32.373 89.6306 34.2138 87.5012 35.9932C87.6315 36.0236 87.7459 36.0871 87.8115 36.1861C88.6655 35.8622 89.5555 35.399 90.3458 35.2734C91.4861 35.0925 93.8243 34.9821 94.6856 35.744C95.745 36.681 94.6083 37.4428 93.3558 37.623C91.5397 37.8844 89.1631 37.2227 87.4161 36.7756C87.2162 36.8021 86.9981 36.7585 86.8678 36.6392C86.8292 36.6297 86.7906 36.6204 86.753 36.6114C84.5966 38.3821 82.3577 40.0944 80.1325 41.7692C80.1562 41.7682 80.1798 41.7672 80.2045 41.7662C80.7849 41.4818 81.4073 41.2484 82.0819 41.126C83.6425 40.8413 85.4784 40.8392 86.7441 41.682C88.0049 42.5212 88.4508 43.9894 87.1452 44.9328C84.5319 46.8211 80.6865 42.5194 79.3691 42.3403C77.1078 44.0244 74.7168 45.598 72.2884 47.1398C72.5641 47.077 72.8468 47.0309 73.139 47.01C75.5195 46.8389 81.1051 49.0164 78.1824 51.1619C75.6354 53.0316 72.6914 49.436 70.6408 48.1789C68.3524 49.616 66.0515 51.0432 63.8152 52.5261C65.0345 52.2838 66.2127 52.2477 67.5195 52.5422C68.8716 52.8473 71.0532 53.6092 70.1974 54.9732C69.327 56.3604 66.707 55.7303 65.3424 55.2905C64.5982 55.0507 63.1063 54.2407 61.7961 53.8999C58.2274 56.4164 55.1359 59.1879 52.7947 62.4523C51.333 64.4905 50.2234 66.6679 49.4419 68.9056C48.9431 70.334 47.9605 72.7329 48.1556 74.5917C47.2221 70.8714 48.9176 66.4021 50.7432 63.0758C52.4217 60.0171 54.9324 57.3315 57.8728 54.9139C57.1364 53.2576 50.9308 50.8706 54.6427 49.33C56.6137 48.5155 58.631 49.865 59.0608 51.295C59.356 52.2777 58.9044 53.5127 58.4254 54.4667C59.3503 53.7297 60.3118 53.0164 61.3026 52.3267C62.6718 51.3736 64.0738 50.4481 65.4892 49.5342C63.159 47.8993 60.9558 43.2237 64.0821 42.4577C68.6987 41.3298 66.4719 47.7094 66.1491 48.9051C66.0576 48.9091 65.9864 48.8885 65.934 48.8443C65.9599 48.9538 65.9899 49.0709 66.0263 49.1889C68.7353 47.4489 71.4844 45.7431 74.143 43.9615C73.9037 43.8294 73.5234 43.3245 73.2245 43.0559C72.5498 42.4501 71.9043 41.8174 71.4327 41.1087C70.6878 39.9887 69.9698 38.2021 71.9469 37.5424C74.0971 36.8237 75.1173 38.8443 75.1315 40.0499C75.1412 40.8837 74.8366 41.6759 74.6776 42.4933C74.628 42.7482 74.8178 43.8971 74.3532 43.403C74.375 43.5852 74.3781 43.7172 74.3672 43.8108C74.8445 43.4894 75.3181 43.1644 75.7887 42.8372C75.767 42.7959 75.7509 42.7508 75.7472 42.6986C75.7223 42.3392 76.2066 42.2006 76.5461 42.3057C77.1672 41.8649 77.7821 41.4186 78.3861 40.9634C79.6663 39.999 80.965 39.007 82.2548 37.994C81.9752 37.8147 82.0866 37.5661 81.8252 37.3757C81.5642 37.1857 81.0499 37.0808 80.743 36.9044C79.971 36.4603 79.331 35.8132 78.8682 35.1763C78.1043 34.1239 77.1175 31.916 79.3518 31.4134C81.6547 30.8945 82.822 33.0198 82.9691 34.3488C82.9978 34.6062 82.7381 36.9263 82.5399 37.7688C84.9264 35.8861 87.2738 33.9328 89.4006 31.9457C88.7561 31.9415 86.9297 30.956 86.5605 30.6871C85.6597 30.0311 84.228 28.5814 85.8086 27.8133C87.2139 27.1321 88.945 28.1173 89.5451 29.0753C89.6437 29.233 89.9909 30.7014 90.0176 31.3603C90.8979 30.5176 91.7377 29.67 92.519 28.8197C93.04 28.2544 93.527 27.6741 93.9826 27.0816C93.873 27.0352 93.77 26.9544 93.6727 26.8538C91.3298 26.5577 88.3443 23.8283 91.0972 22.8773C92.4078 22.425 93.8283 23.357 94.4697 24.1202C94.6011 24.2763 94.8135 25.0615 94.9865 25.6808C96.2975 23.7178 97.2997 21.6398 98.0629 19.5093C97.8589 19.4715 97.6863 19.3552 97.6636 19.1551C96.5264 18.6711 95.6283 18.2681 94.8348 17.337C94.3419 16.7586 93.4543 15.4372 94.9041 15.1155C96.7909 14.6969 97.9744 16.8485 98.128 17.9085C98.1459 18.0315 98.145 18.3893 98.1386 18.7173C98.204 18.7106 98.2703 18.7113 98.3352 18.7199C98.7693 17.4006 99.1161 16.0645 99.392 14.7261C98.3626 14.479 98.1872 10.4403 98.8732 9.86496C100.406 8.57673 101.486 10.4364 101.404 11.4195C101.306 12.5787 100.602 13.6334 99.7643 14.5695C99.6744 14.6687 99.7 14.6638 99.6768 14.5258C99.6639 14.594 99.6333 14.6444 99.588 14.6809C99.6308 15.2911 99.7146 15.9157 99.6738 16.4557C99.5568 18.0019 99.3146 19.5572 98.9634 21.0836C98.878 21.4549 98.7802 21.8231 98.6706 22.1882C99.4985 21.6612 100.615 21.193 101.051 21.0465C102.185 20.6667 103.931 20.2564 105.057 20.8987ZM47.9702 74.4449C48.0249 74.9417 48.1874 75.3952 48.5073 75.7667C48.2724 75.342 48.0963 74.8998 47.9702 74.4449Z" fill="#C1DEE2"/>
<g opacity="0.7">
<path opacity="0.7" fill-rule="evenodd" clip-rule="evenodd" d="M226.664 108.558C232.734 108.321 240.241 110.993 240.888 115.968C241.359 119.584 241.213 123.189 241.941 126.799C242.523 129.684 243.754 132.453 245.434 135.081C247.048 137.609 250.397 139.76 251.269 142.46C251.824 144.18 251.513 146.6 250.747 148.282C249.816 150.328 250.311 150.166 252.166 151.883C255.802 155.247 259.076 158.697 261.391 162.715C264.725 168.502 266.912 175.267 265.674 181.601C265.517 182.406 265.33 185.293 263.861 185.494C262.221 185.72 262.988 184.069 263.075 183.536C263.633 180.133 264.129 177.158 263.456 173.702C260.858 160.367 248.173 151.581 239.914 140.264C239.46 139.68 238.501 138.29 237.835 137.374C236.783 135.926 235.725 133.172 234.301 132.098C231.618 130.076 234.084 134.141 234.607 134.917C235.268 135.899 235.995 136.942 236.672 137.803C239.771 141.79 243.23 146.142 246.43 150.252C232.589 152.631 222.84 140.081 219.126 131.83C216.066 125.033 212.404 109.14 226.664 108.558Z" fill="#69A1AC"/>
<path opacity="0.7" fill-rule="evenodd" clip-rule="evenodd" d="M308.017 95.9347C297.87 96.5418 291.356 101.591 288.324 108.654C286.689 112.46 286.502 116.37 285.594 120.281C284.228 126.166 281.288 130.625 275.543 134.818C273.764 136.116 272.452 137.449 271.52 138.876C269.67 140.3 268.059 141.911 266.876 143.881C265.364 146.398 264.936 149.416 266.682 151.925C267.151 152.599 268.322 153.953 269.535 154.568C264.992 161.864 262.495 169.855 262.776 177.835C262.946 182.653 263.258 187.472 263.622 192.283C263.72 193.575 264.278 195.709 265.116 193.542C265.883 191.56 264.921 188.449 264.832 186.379C264.399 176.293 264.029 167.122 269.534 157.699C270.112 156.711 270.724 155.732 271.361 154.76C271.398 154.744 271.433 154.724 271.468 154.705C271.493 154.719 271.515 154.734 271.539 154.748C271.58 154.693 271.636 154.628 271.701 154.555C271.883 154.413 272.043 154.233 272.195 154.032C272.683 153.522 273.236 152.922 273.239 152.594C273.239 152.592 273.237 152.588 273.237 152.585C276.645 148.389 280.549 144.425 284.536 140.538C284.506 140.566 288.861 136.095 288.187 138.568C287.863 139.759 284.66 142.029 283.366 143.291C280.504 146.099 277.143 149.658 274.351 153.098C273.975 153.261 273.444 154.061 273.06 154.657C272.848 154.958 272.65 155.263 272.456 155.528C282.351 157.993 290.049 153.027 295.297 147.25C295.304 147.243 295.309 147.236 295.315 147.23C296.913 145.633 298.549 144.049 300.593 142.787C304.003 140.681 307.655 140.31 311.676 139.274C322.642 136.448 327.304 125.731 328.784 117.779C330.455 108.807 322.283 95.0501 308.017 95.9347Z" fill="#89C5CC"/>
<path opacity="0.7" fill-rule="evenodd" clip-rule="evenodd" d="M287.974 70.8109C277.56 78.985 272.529 90.3226 268.545 100.981C264.096 112.885 261.157 124.974 261.044 137.351C260.97 145.482 260.676 153.665 261.306 161.787C261.529 164.672 261.91 167.561 262.517 170.415C262.567 170.65 263.923 177.021 265.221 175.536C265.959 174.692 263.83 168.927 263.67 167.967C262.765 162.558 262.555 157.11 262.599 151.662C262.671 142.693 262.321 133.769 263.526 124.833C263.706 123.499 263.848 122.098 264.268 120.792C264.714 119.405 264.146 120.01 265.599 119.461C267.012 118.927 268.757 119.003 270.222 118.333C276.034 115.675 279.007 108.848 281.321 104.369C283.968 99.2462 285.576 93.7838 286.861 88.393C287.804 84.4323 288.479 80.4957 288.861 76.4839C288.981 75.2196 288.988 73.8974 289.318 72.6542C289.406 72.3189 289.852 71.7256 289.835 71.4286C289.801 70.8001 289.298 70.4305 289.257 69.9023C288.821 70.1982 288.393 70.5013 287.974 70.8109Z" fill="#89C5CC"/>
<path opacity="0.7" fill-rule="evenodd" clip-rule="evenodd" d="M231.189 179.718C231.189 193.236 245.72 204.194 263.644 204.194C281.569 204.194 296.1 193.236 296.1 179.718" fill="#89C5CC"/>
<path opacity="0.7" fill-rule="evenodd" clip-rule="evenodd" d="M266.249 179.796H264.534C264.653 178.173 264.81 176.553 265.17 174.948C266.545 168.812 270.847 159.798 280.281 158.802C280.629 158.765 281.91 158.759 283.461 158.827C284.196 158.518 285.019 158.33 285.886 158.287C293.919 157.841 302.889 162.728 306.764 167.814C309.887 171.914 309.361 177.298 307.432 181.655C306.14 184.571 303.32 188.73 298.618 188.77C292.736 188.821 292.452 183.338 292.338 180.132C292.187 175.87 291.473 172.158 287.02 169.253C285.982 168.576 284.848 167.981 283.8 167.313C282.158 166.269 280.344 165.199 280.133 163.471C279.841 161.087 281.625 160.658 284.35 161.101C284.814 161.177 289.493 162.76 288.8 161.508C288.589 161.126 287.816 160.823 286.841 160.596C284.318 160.389 281.31 160.149 280.445 160.293C271.11 161.837 267.476 171.588 266.51 177.784C266.406 178.453 266.322 179.124 266.249 179.796Z" fill="#69A1AC"/>
</g>
<g opacity="0.5">
<path opacity="0.5" fill-rule="evenodd" clip-rule="evenodd" d="M89.0183 63.8548C90.8866 61.8457 94.3537 56.7433 96.9834 56.0254C98.6771 55.563 98.1833 60.3462 98.2042 61.2582C98.2856 64.7868 97.8301 68.2929 97.2676 71.7919C96.2542 78.1022 92.9405 83.722 88.3954 89.0927C86.0567 91.8562 83.3134 94.6533 79.514 96.3776C77.7651 97.1717 75.6607 97.3047 73.9335 97.9888C71.922 98.7853 73.0175 98.1414 72.111 99.7222C70.8521 101.917 70.4494 104.748 69.8669 107.09C67.1925 117.841 60.7178 174.67 61.8402 185.605C61.9399 186.574 60.1479 186.806 60.0584 185.622C59.5829 179.349 63.6975 135.902 65.7734 121.694C67.8492 107.486 69.9499 94.9332 72.0563 90.0176C74.6116 84.0539 79.2266 76.8821 83.0684 71.3207C84.8528 68.7371 86.7979 66.2424 89.0183 63.8548Z" fill="#69A1AC"/>
<path opacity="0.5" fill-rule="evenodd" clip-rule="evenodd" d="M102.886 133.54C107.747 130.848 113.01 135.928 108.611 138.621C106.178 140.109 103.636 139.579 102.205 138.339C101.275 139.193 100.406 140.087 99.57 140.841C97.0239 143.14 94.6175 145.493 92.3176 147.902C87.5401 152.906 83.4458 158.192 79.1649 163.381C74.9403 168.503 70.7494 173.651 66.9203 178.903C63.6764 183.352 59.3528 188.587 58.2422 193.465C59.9273 183.12 66.3213 173.176 73.9355 164.056C81.4877 155.011 90.1548 145.133 101.848 137.995C100.658 136.675 100.625 134.791 102.886 133.54Z" fill="#C1DEE2"/>
<path opacity="0.5" fill-rule="evenodd" clip-rule="evenodd" d="M10.6318 108.31C13.3524 108.711 17.7978 113.353 20.0404 115.121C22.7055 117.223 25.1235 119.463 27.4027 121.81C32.3093 126.861 36.6975 132.232 40.4289 137.833C46.5121 146.963 51.3855 156.336 54.9223 166.278C57.0874 172.364 58.4891 178.672 59.3199 184.937C59.4768 186.118 61.1191 195.226 58.7526 195.471C56.6242 195.692 57.2816 188.555 57.1789 187.585C56.0182 176.632 52.5411 165.975 47.7045 155.652C46.651 153.403 45.6723 150.649 43.9875 148.625C42.7743 147.168 43.9788 147.676 41.8467 147.124C40.0159 146.65 37.9299 146.766 36.0551 146.186C31.9824 144.926 28.7212 142.481 25.8626 140.021C20.3074 135.241 15.9051 130.07 13.6104 123.945C12.3374 120.549 11.1677 117.133 10.5185 113.632C10.3506 112.727 8.87954 108.052 10.6318 108.31Z" fill="#69A1AC"/>
<path opacity="0.5" fill-rule="evenodd" clip-rule="evenodd" d="M21.3683 31.0871C31.6162 44.4902 40.0375 59.2133 45.4751 74.1255C48.7697 83.1606 51.0737 92.432 53.3629 101.636C56.9074 115.888 60.26 130.139 61.2136 144.644C62.1731 159.233 64.0703 176.06 57.7359 190.112C60.9 175.845 57.8876 160.66 57.3542 146.305C57.0993 139.453 56.3607 132.667 55.3918 125.854C54.4515 119.246 52.9154 112.668 51.4849 106.112C50.7881 102.918 50.0563 99.73 49.3113 96.5434C49.0888 95.5926 48.9949 92.7714 48.1952 92.1219C47.3903 91.4681 43.2837 91.2016 41.9944 90.7219C39.3982 89.7557 36.9561 88.3833 34.7948 86.9332C30.6516 84.1534 27.0472 80.5212 24.2024 76.9407C17.6201 68.656 14.9885 58.5456 15.1215 48.9509C15.147 47.088 19.1196 27.028 17.5241 26.7517C17.6202 26.6669 17.7111 26.5793 17.7967 26.4882C19.0046 28.0133 20.1899 29.5489 21.3683 31.0871Z" fill="#89C5CC"/>
<path opacity="0.5" fill-rule="evenodd" clip-rule="evenodd" d="M131.976 79.4269C132.134 79.2549 133.163 78.0587 132.645 78.1352C133.7 77.9795 131.194 79.4545 133.823 78.5494C132.575 79.4385 133.295 80.5935 133.312 81.7901C133.339 83.7329 132.908 85.6597 132.423 87.5609C131.656 90.5659 130.514 93.4877 128.856 96.2828C125.243 102.374 119.108 108.238 111.824 112.046C108.228 113.926 104.704 114.566 100.603 115.432C98.0123 115.979 97.8069 116.989 96.4319 118.885C93.5693 122.833 90.7576 126.767 88.2331 130.849C85.2185 135.723 82.2922 140.602 79.5317 145.562C70.2324 162.268 62.6636 179.576 58.6887 197.488C58.5913 186.933 61.8292 176.061 65.9134 166C68.8886 158.67 72.7616 151.604 76.8926 144.609C77.8937 142.914 79.4106 140.735 79.8357 138.864C80.1334 137.553 79.2234 136.292 78.8067 134.911C77.1823 129.534 77.2986 123.51 78.725 118.104C80.2978 112.143 84.8461 109.376 92.5402 108.532C95.3541 108.223 98.9306 108.336 101.511 107.431C104.322 106.446 105.482 103.207 107.08 101.128C111.374 95.5432 116.475 90.1871 122.332 85.4815C123.954 84.1785 125.699 82.9763 127.549 81.8621C128.716 81.1591 131.181 80.2929 131.976 79.4269Z" fill="#89C5CC"/>
<path opacity="0.5" fill-rule="evenodd" clip-rule="evenodd" d="M45.7003 186.088H73.006C74.2337 186.088 75.229 186.839 75.229 187.765C75.229 187.846 75.221 187.928 75.2052 188.009L73.0947 198.802C72.4514 202.092 68.7078 204.529 64.298 204.529H54.4084C49.9986 204.529 46.255 202.092 45.6116 198.802L43.5011 188.009C43.322 187.093 44.1614 186.241 45.376 186.106C45.4834 186.094 45.5918 186.088 45.7003 186.088Z" fill="#C1DEE2"/>
</g>
<path fill-rule="evenodd" clip-rule="evenodd" d="M21.082 191.606C21.082 198.743 21.8289 204.529 31.8536 204.529C41.8783 204.529 42.6252 198.743 42.6252 191.606" fill="#F2F2F2"/>
<path fill-rule="evenodd" clip-rule="evenodd" d="M34.8355 187.152C34.4681 187.632 34.1404 188.12 33.851 188.616C33.8408 187.595 33.9157 186.566 34.1203 185.522C34.4699 183.736 35.0039 181.958 35.5057 180.183C35.8664 178.908 35.8436 176.617 37.2123 175.6C37.5877 175.381 37.678 175.812 37.678 175.999C37.6827 176.038 37.677 175.235 37.3127 175.375C35.1472 176.219 34.4455 178.871 33.7523 180.199C32.7408 182.137 31.8802 184.118 31.5258 186.134C31.4362 186.644 31.3875 187.153 31.3762 187.661C31.3027 187.525 31.2335 187.388 31.157 187.253C29.9072 185.042 28.2205 182.885 26.1169 180.896C25.5991 180.406 19.0883 175.577 18.5786 176.316C18.6289 176.423 18.7342 176.512 18.8948 176.583C18.9042 176.591 18.9045 176.587 18.899 176.575C19.2813 177.04 20.3685 177.76 20.7072 178.168C21.5594 179.195 22.2218 180.285 22.8949 181.355C24.317 183.614 25.6363 185.897 26.9152 188.184C27.213 188.717 27.5233 189.246 27.84 189.774C24.5758 186.224 20.2213 183 14.2271 181.155C16.2744 181.941 17.6167 183.418 18.9993 184.55C20.6668 185.915 22.4232 187.243 24.0939 188.606C26.0645 190.214 28.3832 191.908 30.2786 193.688C32.1146 196.595 33.8987 199.505 35 202.561C34.5487 201.505 34.9646 200.046 34.8874 198.938C34.8261 198.056 34.6894 197.181 34.5021 196.308C34.7336 196.702 34.9332 197.096 35.0236 197.463C34.9411 196.848 34.846 196.237 34.7439 195.629C35.006 195.06 35.2635 194.529 35.4374 194.092C36.3287 191.848 37.3899 189.643 38.8351 187.494C40.1724 185.506 41.7064 183.543 43.3779 181.64C44.1576 180.753 44.948 179.869 45.7335 178.984C46.2476 178.404 46.7371 177.476 47.4529 176.921C42.8261 180.111 37.771 183.325 34.8355 187.152Z" fill="#F2F2F2"/>
<path fill-rule="evenodd" clip-rule="evenodd" d="M315.499 41.5186C314.173 38.182 311.059 35.5705 307.826 33.1777C301.533 28.5195 298.148 25.6394 295.905 18.8253C294.586 14.8178 293.244 10.571 289.06 7.66355C286.014 5.54624 280.771 3.76733 276.697 5.28349C270.429 8.10465 268.746 13.8941 269.378 19.0783C270.162 25.5037 274.141 29.4655 281.787 31.8322C286.095 33.1651 288.959 34.9238 291.297 37.9884C293.168 40.4389 294.259 43.5074 296.609 45.7289C300.123 49.0497 304.521 50.5259 309.942 49.9743C304.865 42.9293 298.932 35.8181 291.777 29.8865C291.108 29.2902 287.157 27.0077 287.954 25.9914C288.832 24.8723 292.887 29.0759 292.858 29.0505C294.938 30.8505 296.862 32.7633 298.751 34.6945C298.746 34.6964 298.741 34.6974 298.736 34.6994C300.681 36.681 302.611 38.6919 304.504 40.7279C305.269 41.5891 306.015 42.4614 306.728 43.3555C307.775 44.6675 309.436 48.3912 311.149 49.198C311.516 49.3705 311.854 49.4669 312.171 49.5067C313.34 50.9499 314.477 52.4047 315.559 53.8767C318.383 57.7211 320.808 61.7804 321.92 66.1208C322.245 67.3876 322.015 72.1265 323.162 73.041C325.258 74.7138 324.644 71.4925 324.519 70.5202C323.478 62.4686 319.645 55.6091 314.08 48.8401C315.789 47.1563 316.036 42.8705 315.499 41.5186Z" fill="#F2F2F2"/>
<path fill-rule="evenodd" clip-rule="evenodd" d="M243.696 45.4088C245.906 43.4449 251.219 43.1117 254.469 43.2432C258.49 43.4058 262.619 44.144 266.445 45.0365C272.746 46.5067 278.869 49.1896 284.419 51.7864C285.088 52.0993 293.328 55.8362 292.599 56.4921C291.876 57.1418 283.787 52.7029 281.984 51.9378C278.138 50.3047 274.61 48.3734 270.369 47.295C265.979 46.1781 261.335 45.7359 256.718 45.7664C256.126 45.7704 254.193 45.4588 254.151 46.1199C254.11 46.7665 257.308 46.4292 257.872 46.433C260.202 46.4492 262.545 46.6145 264.841 46.9189C269.144 47.4892 273.188 48.6381 276.873 50.4004C275.845 52.2032 273.38 53.0344 270.795 52.5833C268.56 52.1932 266.382 51.2314 264.194 50.9532C262.687 50.7618 261.178 50.8757 259.716 51.1959C255.862 52.0407 253.639 53.7714 249.401 52.5675C246.078 51.6238 240.522 48.2331 243.696 45.4088Z" fill="#F2F2F2"/>
<path fill-rule="evenodd" clip-rule="evenodd" d="M246.196 26.8234H247.241C247.168 25.8227 247.073 24.8236 246.848 23.8341C246.008 20.125 243.38 14.6774 237.616 14.0753C237.403 14.0529 236.621 14.0491 235.673 14.0906C235.224 13.9034 234.721 13.7902 234.191 13.7641C229.284 13.4942 223.803 16.448 221.436 19.5218C219.528 22.0001 219.849 25.2545 221.028 27.8874C221.817 29.6502 223.54 32.1634 226.413 32.1879C230.007 32.2186 230.18 28.9045 230.25 26.967C230.342 24.3912 230.778 22.1474 233.499 20.3917C234.133 19.9827 234.826 19.6229 235.466 19.2195C236.469 18.5882 237.577 17.9418 237.707 16.8974C237.885 15.4565 236.795 15.1972 235.13 15.4649C234.846 15.5104 231.988 16.4673 232.411 15.711C232.541 15.4799 233.012 15.2969 233.608 15.1597C235.149 15.0346 236.987 14.8896 237.516 14.9762C243.219 15.9097 245.439 21.8033 246.029 25.5479C246.096 25.9719 246.149 26.3973 246.196 26.8234H246.196Z" fill="#F2F2F2"/>
<rect x="162" y="155" width="28.8712" height="0.993803" fill="#C4C4C4"/>
<path fill-rule="evenodd" clip-rule="evenodd" d="M109.053 134L119.92 171.498L125.032 199.653H130.162L125.041 134H109.053Z" fill="#997659"/>
<path fill-rule="evenodd" clip-rule="evenodd" d="M104.17 134C104.928 153.48 104.629 164.105 104.459 165.875C104.29 167.645 103.326 179.498 96.7607 200.247H102.097C110.791 180.342 113.827 168.489 114.824 165.875C115.821 163.261 118.766 152.636 123.066 134H104.17Z" fill="#B28B67"/>
<path fill-rule="evenodd" clip-rule="evenodd" d="M108.82 134C111.647 146.903 116.536 167.5 123.487 195.791H130.99C131.545 166.753 129.187 147.642 125.104 134H108.82Z" fill="#69A1AC"/>
<path fill-rule="evenodd" clip-rule="evenodd" d="M104.132 134C104.874 153.48 102.95 172.672 96.9883 196.094H104.994C113.705 176.486 119.948 157.389 124.215 134H104.132Z" fill="#89C5CC"/>
<path fill-rule="evenodd" clip-rule="evenodd" d="M96 204.109L96.2944 199.356C98.0182 199.86 100.177 199.662 102.772 198.761C105.561 200.74 109.073 202.091 113.307 202.815L113.307 202.815C113.63 202.87 113.847 203.177 113.792 203.5C113.788 203.521 113.784 203.542 113.778 203.563L113.371 205H102.772H96.5888L96 204.109Z" fill="#191847"/>
<path fill-rule="evenodd" clip-rule="evenodd" d="M123.887 204.109L124.181 199.356C125.905 199.86 128.064 199.662 130.658 198.761C133.448 200.74 136.96 202.091 141.193 202.815L141.193 202.815C141.516 202.87 141.734 203.177 141.678 203.5C141.675 203.521 141.67 203.542 141.664 203.563L141.257 205H130.658H124.476L123.887 204.109Z" fill="#191847"/>
<g clip-path="url(#clip1)">
<path fill-rule="evenodd" clip-rule="evenodd" d="M137.907 106.982C137.112 104.656 136.951 102.126 138.062 99.8005C141.262 93.0993 150.241 98.3916 150.733 102.604C151.225 106.817 147.525 115.553 144.872 115.225C143.814 115.094 142.008 113.681 140.421 111.603L137.914 117.961L132.945 112.777L137.907 106.982Z" fill="#B28B67"/>
<path fill-rule="evenodd" clip-rule="evenodd" d="M147.916 96.8615C146.965 96.2935 144.272 95.0991 143.767 94.9001C143.444 94.7728 143.065 94.7088 142.991 94.3367C142.93 94.0319 143.15 93.6435 143.214 93.343C143.289 92.994 143.34 92.6402 143.389 92.2869C143.529 91.2815 143.538 90.276 143.392 89.2711C143.118 87.3857 142.304 85.6722 140.952 84.3291C139.459 82.846 137.495 81.8666 135.499 81.2611C133.363 80.6131 131.22 80.5588 129.012 80.4323C126.907 80.3118 124.862 79.7844 123.032 78.7168C121.189 77.6412 120.127 75.9914 118.87 74.3277C117.584 72.6246 115.914 71.1842 113.85 70.55C111.923 69.9581 109.895 70.052 107.941 70.4754C106.114 70.8716 104.462 71.5638 103.142 72.9347C101.723 74.4094 100.962 76.3421 101.541 78.368C102.38 81.3045 105.358 83.1525 108.049 84.1468C109.606 84.722 111.233 85.0375 112.893 85.0987C115.107 85.1802 117.244 84.6818 119.434 84.4571C120.461 84.3517 121.487 84.3365 122.514 84.4396C123.511 84.5396 124.441 84.7716 125.039 85.6347C125.672 86.5478 126.22 87.4156 127.061 88.1627C127.868 88.8795 128.791 89.4662 129.799 89.8546C131.76 90.6103 133.927 90.76 135.987 91.0999C137.667 91.3772 139.455 91.6983 140.907 92.641C141.513 93.0343 142.366 93.6896 142.334 94.4691C138.043 93.6173 134.515 97.9573 134.208 102.044C134.042 104.249 136.799 107.99 138.63 107.519C139.79 107.22 139.581 106.145 139.451 105.438C139.2 104.084 139.518 102.597 141.072 102.335C142.413 102.11 142.941 104.108 142.963 104.115C143.27 104.209 146.418 103.766 149.029 102.338C150.737 103.132 151.458 102.081 151.412 100.972C151.367 99.8628 149.23 97.6465 147.916 96.8615Z" fill="#191847"/>
</g>
<path fill-rule="evenodd" clip-rule="evenodd" d="M157.888 156H202.5C205.928 156 208.707 158.773 208.707 162.194V197.806C208.707 201.227 205.928 204 202.5 204H157.888C154.46 204 151.681 201.227 151.681 197.806V162.194C151.681 158.773 154.46 156 157.888 156ZM164.095 166.839C163.238 166.839 162.543 167.532 162.543 168.387V191.613C162.543 192.468 163.238 193.161 164.095 193.161H196.293C197.15 193.161 197.845 192.468 197.845 191.613V168.387C197.845 167.532 197.15 166.839 196.293 166.839H164.095Z" fill="#C5CFD6"/>
<rect x="162" y="154" width="28.8712" height="0.993803" fill="#C4C4C4"/>
<path d="M155.762 73.35C154.895 73.35 154.212 73.0667 153.712 72.5C153.245 71.9333 153.012 71.1333 153.012 70.1C153.012 68.5333 153.312 67.2333 153.912 66.2C154.512 65.1333 155.345 64.05 156.412 62.95C157.178 62.1167 157.745 61.4 158.112 60.8C158.512 60.2 158.712 59.5333 158.712 58.8C158.712 58.0667 158.445 57.4833 157.912 57.05C157.378 56.6167 156.645 56.4 155.712 56.4C154.945 56.4 154.178 56.55 153.412 56.85C152.678 57.1167 151.845 57.5167 150.912 58.05L149.712 58.65C148.578 59.2833 147.662 59.6 146.962 59.6C146.128 59.6 145.412 59.25 144.812 58.55C144.245 57.8167 143.962 56.9333 143.962 55.9C143.962 55.2 144.078 54.6167 144.312 54.15C144.578 53.6833 144.995 53.2333 145.562 52.8C147.062 51.7 148.762 50.85 150.662 50.25C152.595 49.6167 154.528 49.3 156.462 49.3C158.628 49.3 160.562 49.6833 162.262 50.45C163.962 51.1833 165.295 52.2167 166.262 53.55C167.228 54.85 167.712 56.3333 167.712 58C167.712 59.2333 167.445 60.3667 166.912 61.4C166.412 62.4333 165.795 63.3167 165.062 64.05C164.328 64.7833 163.378 65.6667 162.212 66.7C161.112 67.6 160.262 68.3833 159.662 69.05C159.095 69.6833 158.728 70.35 158.562 71.05C158.428 71.7833 158.095 72.35 157.562 72.75C157.062 73.15 156.462 73.35 155.762 73.35ZM155.862 85.3C154.495 85.3 153.345 84.8333 152.412 83.9C151.512 82.9667 151.062 81.8167 151.062 80.45C151.062 79.0833 151.512 77.9333 152.412 77C153.345 76.0667 154.495 75.6 155.862 75.6C157.262 75.6 158.412 76.0667 159.312 77C160.245 77.9333 160.712 79.0833 160.712 80.45C160.712 81.8167 160.245 82.9667 159.312 83.9C158.412 84.8333 157.262 85.3 155.862 85.3Z" fill="#CCCCCC"/>
<g clip-path="url(#clip2)">
<path fill-rule="evenodd" clip-rule="evenodd" d="M141.71 138.701L152.223 143.009C154.796 143.057 157.012 143.363 158.871 143.927C159.339 144.18 159.977 144.769 158.361 145.044C156.746 145.318 155.06 145.68 154.975 146.275C154.891 146.871 156.011 147.278 155.75 148.118C155.576 148.678 153.881 147.807 150.664 145.503L140.952 144.053L141.71 138.701ZM109.785 123.26L115.181 126.403C101.594 136.242 94.4932 141.401 93.8781 141.88C92.494 142.958 92.4656 145.799 92.3176 147.25C90.2009 147.027 91.9819 144.356 89.2901 144.112C86.8332 143.889 84.4199 144.662 82.9727 141.995C82.7948 141.667 82.8601 140.856 83.8764 140.78C86.4084 140.591 90.2781 139.935 91.0438 139.426C92.0879 138.732 98.335 133.343 109.785 123.26Z" fill="#997659"/>
<path fill-rule="evenodd" clip-rule="evenodd" d="M134.439 114.766L138.511 117.491C134.14 127.469 136.4 136.671 150.275 142.008L144.993 155.058C132.226 149.723 124.532 138.975 129.789 124.936C131.15 121.302 132.705 117.6 134.439 114.766Z" fill="#AFB9C5"/>
<path fill-rule="evenodd" clip-rule="evenodd" d="M133.056 112.336L138.628 117.5C132.297 128.467 131.772 137.493 128.919 146.597L111.594 136.594C109.741 139.239 107.938 142.016 106.162 144.912L93.1894 137.423C105.105 123.574 118.253 115.129 132.635 112.088L133.055 112.331L133.056 112.336Z" fill="#C5CFD6"/>
<path fill-rule="evenodd" clip-rule="evenodd" d="M123.36 122.527C118.969 129.103 116.22 134.47 115.115 138.627L111.594 136.594C115.264 131.354 119.128 126.631 123.36 122.527L123.36 122.527Z" fill="black" fill-opacity="0.1"/>
</g>
</g>
<defs>
<clipPath id="clip0">
<rect width="329" height="228" fill="white"/>
</clipPath>
<clipPath id="clip1">
<rect width="47" height="36" fill="white" transform="translate(126.205 78) rotate(21.5181)"/>
</clipPath>
<clipPath id="clip2">
<rect width="73" height="53" fill="white" transform="translate(103.55 95.2958) rotate(30)"/>
</clipPath>
</defs>
</svg>
