<svg width="54" height="48" viewBox="0 0 54 48" fill="none" xmlns="http://www.w3.org/2000/svg">
<path d="M14.6464 25.1464L14.5 25.2929V25.5V30V30.5H15H48H48.5V30V19.5V19.2929L48.3536 19.1464L40.1491 10.9419L40.1491 10.9419C39.5144 10.3074 38.4856 10.3073 37.851 10.9419L25.5 23.2929L22.1491 19.9419L22.1491 19.9419C21.5144 19.3074 20.4856 19.3073 19.851 19.9419L14.6464 25.1464ZM44.5 39.5V40.5C44.5 42.7092 42.7092 44.5 40.5 44.5H4.5C2.29083 44.5 0.5 42.7092 0.5 40.5V16.5C0.5 14.2908 2.29083 12.5 4.5 12.5H5.5V31.5C5.5 35.9116 9.08836 39.5 13.5 39.5H44.5ZM53.5 7.5V31.5C53.5 33.7092 51.7092 35.5 49.5 35.5H13.5C11.2908 35.5 9.5 33.7092 9.5 31.5V7.5C9.5 5.29083 11.2908 3.5 13.5 3.5H49.5C51.7092 3.5 53.5 5.29083 53.5 7.5ZM19.5 17C22.2615 17 24.5 14.7615 24.5 12C24.5 9.23855 22.2615 7 19.5 7C16.7385 7 14.5 9.23855 14.5 12C14.5 14.7615 16.7385 17 19.5 17Z" stroke="#14213D"/>
</svg>
