<svg width="48" height="48" viewBox="0 0 48 48" fill="none" xmlns="http://www.w3.org/2000/svg">
<g clip-path="url(#clip0)">
<path d="M28.5152 32.221L28.2369 32.1684L28.0488 32.3801L25.7976 34.9127C25.6335 35.0974 25.432 35.2452 25.2066 35.3464C24.9811 35.4477 24.7368 35.5 24.4897 35.5H21H20.5V36V39.75C20.5 40.7165 19.7165 41.5 18.75 41.5H15H14.5V42V45.75C14.5 46.7165 13.7165 47.5 12.75 47.5H2.25C1.28349 47.5 0.5 46.7165 0.5 45.75V38.432C0.5 37.9679 0.68441 37.5227 1.01256 37.1945L16.1815 22.0256L16.3992 21.8078L16.3028 21.5154C15.7826 19.9382 15.5 18.2526 15.5 16.5C15.5 7.66346 22.6634 0.500091 31.4999 0.5C40.3634 0.499909 47.5 7.63655 47.5 16.5001C47.5 25.3366 40.3365 32.5 31.5 32.5C30.4798 32.5 29.4824 32.4034 28.5152 32.221ZM31 12C31 14.7615 33.2385 17 36 17C38.7615 17 41 14.7615 41 12C41 9.23855 38.7615 7 36 7C33.2385 7 31 9.23855 31 12Z" stroke="#14213D"/>
</g>
<defs>
<clipPath id="clip0">
<rect width="48" height="48" fill="white"/>
</clipPath>
</defs>
</svg>
