<svg width="43" height="43" viewBox="0 0 43 43" fill="none" xmlns="http://www.w3.org/2000/svg">
<g clip-path="url(#clip0)">
<path d="M43 14.7813C43 22.9448 36.3822 29.5625 28.2188 29.5625C27.2764 29.5625 26.3551 29.4733 25.4618 29.3048L23.4452 31.5735C23.2561 31.7863 23.024 31.9565 22.7644 32.0731C22.5047 32.1897 22.2233 32.25 21.9386 32.25H18.8125V35.6094C18.8125 36.7226 17.9101 37.625 16.7969 37.625H13.4375V40.9844C13.4375 42.0976 12.5351 43 11.4219 43H2.01562C0.902412 43 0 42.0976 0 40.9844V34.4286C0 33.8941 0.212396 33.3814 0.590326 33.0033L14.1792 19.4145C13.6985 17.957 13.4375 16.3997 13.4375 14.7812C13.4375 6.6178 20.0552 8.39852e-05 28.2187 8.02267e-10C36.4062 -8.39836e-05 43 6.5937 43 14.7813ZM28.2188 10.75C28.2188 12.9764 30.0236 14.7812 32.25 14.7812C34.4764 14.7812 36.2812 12.9764 36.2812 10.75C36.2812 8.52357 34.4764 6.71875 32.25 6.71875C30.0236 6.71875 28.2188 8.52357 28.2188 10.75Z" fill="#444444" fill-opacity="0.5"/>
</g>
<defs>
<clipPath id="clip0">
<rect width="43" height="43" fill="white"/>
</clipPath>
</defs>
</svg>
