<svg width="54" height="43" viewBox="0 0 54 43" fill="none" xmlns="http://www.w3.org/2000/svg">
<g clip-path="url(#clip0)">
<path d="M52.4062 34.9375H32.0434C31.9813 36.6012 30.808 37.625 29.2937 37.625H24.1875C22.6178 37.625 21.4143 36.1578 21.4353 34.9375H1.34375C0.604687 34.9375 0 35.5422 0 36.2812V37.625C0 40.5813 2.41875 43 5.375 43H48.375C51.3313 43 53.75 40.5813 53.75 37.625V36.2812C53.75 35.5422 53.1453 34.9375 52.4062 34.9375ZM48.375 4.03125C48.375 1.81406 46.5609 0 44.3438 0H9.40625C7.18906 0 5.375 1.81406 5.375 4.03125V32.25H48.375V4.03125ZM43 26.875H10.75V5.375H43V26.875Z" fill="#444444" fill-opacity="0.5"/>
</g>
<defs>
<clipPath id="clip0">
<rect width="53.75" height="43" fill="white"/>
</clipPath>
</defs>
</svg>
