<svg width="43" height="43" viewBox="0 0 43 43" fill="none" xmlns="http://www.w3.org/2000/svg">
<path d="M41.6562 8.06238H36.2812L35.6799 6.86057C35.4567 6.41417 35.1137 6.03873 34.6891 5.77633C34.2646 5.51392 33.7754 5.37492 33.2763 5.37488H28.773L26.482 3.08379C25.6346 2.23722 24.1875 2.83687 24.1875 4.03365V16.6179L34.9375 20.4568V17.4686H37.625C40.5938 17.4686 43 15.0625 43 12.0936V9.40614C43 8.66371 42.3987 8.06238 41.6562 8.06238ZM32.25 12.0936C31.5076 12.0936 30.9062 11.4923 30.9062 10.7499C30.9062 10.0075 31.5076 9.40614 32.25 9.40614C32.9924 9.40614 33.5938 10.0075 33.5938 10.7499C33.5938 11.4923 32.9924 12.0936 32.25 12.0936ZM8.0625 18.8124C6.58102 18.8124 5.375 17.6064 5.375 16.1249C5.375 14.6409 4.1715 13.4374 2.6875 13.4374C1.2035 13.4374 0 14.6409 0 16.1249C0 19.6237 2.2533 22.5791 5.375 23.6919V41.6562C5.375 42.3986 5.97633 42.9999 6.71875 42.9999H12.0938C12.8362 42.9999 13.4375 42.3986 13.4375 41.6562V32.2499H26.875V41.6562C26.875 42.3986 27.4763 42.9999 28.2188 42.9999H33.5938C34.3362 42.9999 34.9375 42.3986 34.9375 41.6562V23.3098L22.344 18.8124H8.0625Z" fill="#444444" fill-opacity="0.5"/>
</svg>
