<svg width="299" height="223" viewBox="0 0 299 223" fill="none" xmlns="http://www.w3.org/2000/svg">
<path fill-rule="evenodd" clip-rule="evenodd" d="M121.387 108.728C119.523 106.544 118.262 103.867 118.473 100.868C119.08 92.2252 131.127 94.1264 133.471 98.4884C135.814 102.85 135.536 113.915 132.507 114.695C131.299 115.005 128.726 114.244 126.107 112.668L127.5 118H120L121.387 108.728Z" fill="#B28B67"/>
<path fill-rule="evenodd" clip-rule="evenodd" d="M126.823 101.792C127.204 106.94 128.213 109.514 129.85 109.514C132.305 109.514 134.388 108.004 135.466 108.004C136.251 108.004 136.076 108.956 135.555 109.662C135.126 110.245 133.034 110.806 133.034 111.709C133.034 112.612 134.686 111.913 134.686 112.449C134.686 113.335 134.977 115 133.39 115C131.784 115 127.18 114.433 126.391 112.124C125.881 110.634 125.552 107.545 125.403 102.859C125.305 102.848 125.206 102.842 125.106 102.842C123.73 102.842 122.614 103.923 122.614 105.256C122.614 105.933 122.902 106.545 123.365 106.983C122.788 107.771 122.142 108.595 121.402 109.444C118.621 107.828 116.557 103.095 119.276 98.5493C120.027 96.3222 121.729 95.1326 123.738 94.5802C125.366 93.9206 127.056 93.8462 128.482 94.2416C131.278 94.474 133.775 95.3001 134.483 95.7906C134.483 98.3553 133.97 99.1162 129.589 99.0492C128.512 99.6 127.685 100.548 126.823 101.792Z" fill="#191847"/>
<g opacity="0.345889">
<path opacity="0.345889" fill-rule="evenodd" clip-rule="evenodd" d="M90.4972 156.101C93.5379 128.032 256.68 73.8568 286.967 100.443C317.254 127.029 288.137 176.924 224.667 189.701C161.197 202.478 87.4566 184.17 90.4972 156.101Z" fill="#12C2E9" fill-opacity="0.67"/>
<path opacity="0.345889" d="M190.835 174.395C190.678 173.024 190 171.529 188.804 169.929C187.61 168.332 185.921 166.655 183.786 164.923C179.515 161.458 173.512 157.811 166.274 154.161C151.802 146.864 132.463 139.591 112.35 133.765C92.2378 127.939 71.3759 123.567 53.8604 122.059C45.1019 121.306 37.196 121.27 30.6465 122.12C24.085 122.972 18.9462 124.705 15.6625 127.439C2.25058 138.605 -2.74551 155.914 2.61804 171.768C7.97852 187.612 23.7299 202.109 52.0275 207.511C80.3686 212.922 115.825 210.477 143.857 203.697C157.873 200.307 169.998 195.842 178.437 190.757C182.657 188.214 185.93 185.53 188.06 182.771C190.187 180.017 191.157 177.212 190.835 174.395Z" fill="#A6FFCB" stroke="black"/>
</g>
<path d="M256.531 76.3835C248.166 76.3835 241.384 72.7137 241.384 68.1868C241.384 63.6599 248.166 59.9901 256.531 59.9901C264.897 59.9901 271.678 63.6599 271.678 68.1868C271.678 72.7137 264.897 76.3835 256.531 76.3835Z" fill="#F2F2F2"/>
<path fill-rule="evenodd" clip-rule="evenodd" d="M238.889 73.8333C238.889 63.7735 246.788 55.6185 256.531 55.6185C266.274 55.6185 274.173 63.7735 274.173 73.8333" fill="#DDE3E9"/>
<path d="M255.64 0H257.422V58.2874H255.64V0Z" fill="#DDE3E9"/>
<g opacity="0.7">
<g opacity="0.7">
<path opacity="0.7" d="M228.91 57.9232C222.657 57.9232 217.588 54.9616 217.588 51.3083C217.588 47.6551 222.657 44.6935 228.91 44.6935C235.163 44.6935 240.232 47.6551 240.232 51.3083C240.232 54.9616 235.163 57.9232 228.91 57.9232Z" fill="#F2F2F2"/>
<path opacity="0.7" fill-rule="evenodd" clip-rule="evenodd" d="M215.723 55.8649C215.723 47.7466 221.627 41.1655 228.91 41.1655C236.193 41.1655 242.097 47.7466 242.097 55.8649" fill="#DDE3E9"/>
</g>
<path opacity="0.7" d="M227.841 0H229.623V49.5443H227.841V0Z" fill="#DDE3E9"/>
</g>
<path d="M74.9453 85.3315L68.3278 78.5629C67.2146 77.4245 65.4093 77.4241 64.2956 78.562C64.2953 78.5623 64.2951 78.5626 64.2948 78.5629L46.6771 96.5801C45.6082 97.6731 45.0078 99.1553 45.0078 100.701V220.036" stroke="#CBCBCB" stroke-width="8"/>
<path d="M35.7404 219.671H54.6295C55.22 219.671 55.6987 220.161 55.6987 220.764V221.128C55.6987 221.732 55.22 222.221 54.6295 222.221H35.7404C35.1499 222.221 34.6712 221.732 34.6712 221.128V220.764C34.6712 220.161 35.1499 219.671 35.7404 219.671Z" fill="#AFB9C5"/>
<path fill-rule="evenodd" clip-rule="evenodd" d="M70.9653 81.3602C66.3723 86.055 66.3723 93.6668 70.9653 98.3617L78.0217 105.574L94.6545 88.5729L87.5981 81.3602C83.0051 76.6654 75.5584 76.6654 70.9653 81.3602Z" fill="#C5CFD6"/>
<path d="M87.6941 98.5524C83.1011 103.247 78.6443 106.303 77.7396 105.379C76.8349 104.454 79.8249 99.8985 84.418 95.2037C89.011 90.5089 93.4678 87.4526 94.3725 88.3774C95.2771 89.3021 92.2872 93.8576 87.6941 98.5524Z" fill="#F2F2F2"/>
<path fill-rule="evenodd" clip-rule="evenodd" d="M85.8584 119.565C82.7103 127.212 77.3589 132.524 74.5246 140.475C72.8438 145.19 72.1432 150.316 72.1007 155.567C72.0776 158.419 72.1262 161.272 72.1393 164.124C72.152 166.905 72.2259 169.668 72.4569 172.432C72.6889 175.21 72.9488 177.955 73.0634 180.75C73.1526 182.927 73.1933 185.461 73.9156 187.447C74.4899 189.027 75.9496 189.258 76.3369 187.342C76.5521 186.277 76.525 185.088 76.5013 183.993C76.4708 182.589 76.3909 181.187 76.3502 179.782C76.1863 174.147 76.3987 168.511 76.2877 162.874C76.1793 157.367 75.4867 151.865 76.253 146.394C76.8858 141.876 78.4935 137.997 80.3411 134.278C82.1187 130.699 84.0534 127.208 85.2546 123.138C85.5996 121.969 85.8662 120.757 85.9941 119.5C85.9382 119.474 85.893 119.496 85.8584 119.565Z" fill="#C1DEE2"/>
<path fill-rule="evenodd" clip-rule="evenodd" d="M86.7165 134.65C86.0931 135.111 85.7448 135.784 85.3235 136.448C84.7995 137.273 84.1835 138.019 83.6597 138.845C82.5674 140.568 81.6078 142.396 80.6121 144.188C78.7217 147.59 77.2865 151.216 76.5756 155.152C75.8388 159.231 75.6401 163.441 75.331 167.581C75.0032 171.969 74.6731 176.389 74.6297 180.793C74.6103 182.766 74.5059 184.861 74.7377 186.821C74.882 188.041 75.4205 189.08 76.6347 189.07C79.2138 189.049 80.4246 186.13 80.9305 183.735C81.6751 180.209 81.8237 176.463 81.7058 172.857C81.5634 168.509 80.8251 164.226 80.5056 159.894C80.1672 155.309 80.3583 150.805 81.9006 146.487C82.6798 144.305 83.5841 142.176 84.3961 140.009C84.7419 139.086 85.0251 138.138 85.4921 137.279C86.0117 136.323 86.6566 135.455 87.0635 134.426C86.9479 134.501 86.8321 134.576 86.7165 134.65Z" fill="#89C5CC"/>
<path fill-rule="evenodd" clip-rule="evenodd" d="M57.0062 125.507C56.9271 125.444 56.848 125.381 56.7689 125.318C56.9967 126.299 57.4081 127.096 57.7226 127.993C58.0053 128.799 58.1485 129.711 58.3389 130.592C58.7861 132.662 59.3027 134.685 59.725 136.772C60.561 140.902 60.4029 145.351 59.8546 149.933C59.3368 154.262 58.5179 158.584 58.1277 162.911C57.8043 166.5 57.6652 170.201 57.9738 173.625C58.1834 175.95 58.8707 178.727 60.7434 178.492C61.625 178.382 62.0849 177.297 62.2702 176.073C62.5678 174.106 62.6301 172.038 62.7461 170.083C63.005 165.718 63.0566 161.366 63.1077 157.046C63.1561 152.97 63.2894 148.813 63.0229 144.84C62.766 141.006 61.9622 137.552 60.8129 134.364C60.2076 132.685 59.6309 130.966 58.9508 129.365C58.6247 128.598 58.2262 127.919 57.8999 127.152C57.6375 126.535 57.4288 125.902 57.0062 125.507Z" fill="#C1DEE2"/>
<path fill-rule="evenodd" clip-rule="evenodd" d="M85.9197 147.286C85.5787 146.701 84.828 148.631 84.7137 148.874C84.7621 148.753 84.8106 148.632 84.8595 148.512C84.1826 149.663 83.5633 150.86 83.1782 152.18C82.7972 153.486 82.47 154.818 82.1125 156.133C81.4416 158.601 80.5763 160.999 79.9685 163.489C79.3763 165.915 79.227 168.3 79.3704 170.81C79.5194 173.419 79.6105 176.067 79.4367 178.674C79.3537 179.919 78.9579 181.079 78.6866 182.278C78.4149 183.478 78.201 184.694 77.8799 185.879C77.8062 185.724 77.7968 186.241 77.797 186.28C77.799 186.576 77.8394 186.824 77.9326 187.105C78.1721 187.827 78.62 188.44 79.3017 188.639C80.5336 188.999 81.6774 187.853 82.0746 186.644C82.6445 184.908 82.9585 182.991 83.2301 181.167C83.4791 179.494 83.538 177.812 83.4641 176.116C83.3183 172.772 82.7263 169.472 82.5662 166.129C82.3919 162.49 83.0973 159.07 83.6879 155.528C83.9724 153.821 84.2443 152.13 84.798 150.504C85.0221 149.845 85.3144 149.264 85.6208 148.656C85.7951 148.31 86.1477 147.693 85.9197 147.286Z" fill="#C1DEE2"/>
<path fill-rule="evenodd" clip-rule="evenodd" d="M75.9253 141.601C76.0666 145.77 76.3102 149.908 76.854 154.034C77.409 158.243 78.0465 162.439 78.5805 166.653C79.1003 170.754 79.6452 174.924 79.5726 179.083C79.5191 182.146 80.016 187.328 76.6875 188.84C73.3164 190.372 72.5933 183.833 72.3719 181.675C71.9478 177.534 72.0851 173.35 72.291 169.186C72.5023 164.913 72.8551 160.662 73.2924 156.405C73.778 151.676 74.1591 146.926 74.465 142.184C74.6163 139.838 74.6536 137.496 74.6118 135.15C74.5723 132.936 74.6546 130.699 75.4247 128.597C75.4651 128.627 75.5052 128.657 75.5455 128.686" fill="#69A1AC"/>
<path fill-rule="evenodd" clip-rule="evenodd" d="M58.5219 154.81C59.1281 155.713 59.7392 156.607 60.3118 157.563C61.3362 159.274 62.2625 161.177 62.5412 163.623C63.1244 168.743 62.6565 174.272 62.5436 179.549C62.5205 180.627 62.6539 181.673 62.2382 182.699C61.8612 183.629 61.1564 184.338 60.4846 184.335C59.0464 184.326 59.2659 180.726 59.2635 179.142C59.2592 176.365 59.5638 173.559 59.5376 170.785C59.5114 168.036 59.3479 165.28 58.958 162.669C58.5633 160.027 57.9852 157.489 57.2223 155.121C57.1164 154.793 56.3567 152.254 57.0745 152.691" fill="#89C5CC"/>
<path fill-rule="evenodd" clip-rule="evenodd" d="M64.8725 127.504C65.8181 127.504 65.8123 132.322 65.8407 132.941C65.9434 135.174 65.9193 137.408 65.9843 139.642C66.1265 144.517 66.3012 149.435 67.0176 154.253C67.4033 156.847 67.8504 159.429 68.3314 162.004C68.8138 164.585 69.4613 167.164 69.7786 169.778C70.0833 172.292 69.9111 174.854 69.8693 177.38C69.8275 179.921 69.7524 182.467 69.4267 184.986C69.3464 185.607 69.2522 186.227 69.1513 186.845C69.0673 187.36 69.1163 187.998 68.9742 188.488C68.7464 189.271 67.7698 189.528 67.1122 189.405C65.3329 189.073 64.1963 186.79 63.5885 185.121C62.8122 182.991 62.4004 180.68 61.9939 178.434C61.5334 175.89 61.2636 173.308 61.137 170.718C60.8796 165.455 61.2099 160.186 61.5787 154.939C61.7839 152.021 62.0209 149.117 62.3835 146.217C62.7447 143.329 63.208 140.455 63.5097 137.559C63.7289 135.455 63.9449 133.347 64.0868 131.235C64.1208 130.731 64.1494 127.504 64.8725 127.504Z" fill="#69A1AC"/>
<path fill-rule="evenodd" clip-rule="evenodd" d="M66.0565 162.527C66.2106 157.468 68.2 135.249 68.6526 129.131C68.7658 127.6 69.8555 121.225 69.9968 119.49C70.3801 119.98 70.3473 127.617 70.3431 129.371C70.3387 131.107 70.5493 132.814 70.6576 134.541C70.768 136.302 73.3158 159.052 73.6465 160.745C74.3043 164.112 74.7445 167.568 75.084 171.011C75.4148 174.367 75.929 177.907 75.4864 181.281C75.3847 182.057 75.2237 182.822 74.9616 183.535C74.6784 184.306 74.4843 185.019 74.2569 185.825C73.8911 187.125 73.2294 188.265 72.2126 188.801C70.1278 189.901 69.0084 187.411 68.4409 185.244C67.5346 181.782 66.9529 178.264 66.6802 174.629C66.3785 170.607 65.9331 166.577 66.0565 162.527Z" fill="#89C5CC"/>
<path d="M56.4128 177.413H87.4195C87.8132 177.413 88.1323 177.739 88.1323 178.142V209.835C88.1323 210.238 87.8132 210.564 87.4195 210.564H56.4128C56.0191 210.564 55.7 210.238 55.7 209.835V178.142C55.7 177.739 56.0191 177.413 56.4128 177.413Z" fill="white"/>
<path d="M88.8451 181.056H90.9835C91.3772 181.056 91.6963 181.382 91.6963 181.784V221.493C91.6963 221.895 91.3772 222.221 90.9835 222.221H88.8451C88.4514 222.221 88.1323 221.895 88.1323 221.493V181.784C88.1323 181.382 88.4514 181.056 88.8451 181.056Z" fill="#C5CFD6"/>
<path d="M71.0257 181.056H73.1642C73.5578 181.056 73.877 181.382 73.877 181.784V221.493C73.877 221.895 73.5578 222.221 73.1642 222.221H71.0257C70.6321 222.221 70.3129 221.895 70.3129 221.493V181.784C70.3129 181.382 70.6321 181.056 71.0257 181.056Z" fill="#C5CFD6"/>
<path d="M52.849 181.056H54.9874C55.3811 181.056 55.7002 181.382 55.7002 181.784V221.493C55.7002 221.895 55.3811 222.221 54.9874 222.221H52.849C52.4553 222.221 52.1362 221.895 52.1362 221.493V181.784C52.1362 181.382 52.4553 181.056 52.849 181.056Z" fill="#C5CFD6"/>
<path fill-rule="evenodd" clip-rule="evenodd" d="M232.896 149H181.104H168V221.738H181.104V164.387H232.896V221.738H246V149H232.896Z" fill="#F2F2F2"/>
<g clip-path="url(#clip0)">
<path fill-rule="evenodd" clip-rule="evenodd" d="M114.48 137L127.739 182.248L137.412 215.598H144.468L134.188 137H114.48Z" fill="#191847"/>
<path fill-rule="evenodd" clip-rule="evenodd" d="M110.934 137C110.628 160.321 109.582 173.041 109.26 175.16C108.938 177.279 104.069 190.759 94.6538 215.598H101.963C113.949 191.769 120.641 178.289 122.036 175.16C123.432 172.031 127.74 159.311 134.228 137H110.934Z" fill="#2F3676"/>
<path fill-rule="evenodd" clip-rule="evenodd" d="M94.0005 222L94.3662 214.531H102.046C105.688 217.021 110.442 219.036 116.309 220.577V222H102.412L97.6575 221.289V222H94.0005Z" fill="#191847"/>
<path fill-rule="evenodd" clip-rule="evenodd" d="M136.422 222L136.788 214.531H144.468C148.109 217.021 152.864 219.036 158.73 220.577V222H144.834L140.079 221.289V222H136.422Z" fill="#191847"/>
<g clip-path="url(#clip1)">
<path fill-rule="evenodd" clip-rule="evenodd" d="M145.329 139.149L156.369 133.788C158.303 131.657 160.17 130.037 161.971 128.929C162.51 128.74 163.43 128.682 162.448 130.268C161.467 131.853 160.499 133.57 160.891 134.125C161.283 134.681 162.419 134.068 162.868 134.971C163.168 135.574 161.252 136.294 157.122 137.133L148.854 144.143L145.329 139.149ZM100.694 140.626L106.938 141.995C100.659 154.934 97.2917 161.792 96.8361 162.568C95.8109 164.315 96.7674 167.516 97.1207 169.202C94.9042 169.772 95.7783 166.083 92.9733 166.854C90.413 167.557 88.2422 169.361 85.8548 166.928C85.5613 166.628 85.3464 165.693 86.3472 165.214C88.8404 164.019 92.5238 161.782 93.1211 160.913C93.9356 159.729 96.4601 152.966 100.694 140.626Z" fill="#B28B67"/>
<path fill-rule="evenodd" clip-rule="evenodd" d="M123.908 114.796L126.542 114.297C132.281 120.452 134.623 135.239 138.447 137.197C142.063 139.047 147.188 137.257 153.281 134.839L155.147 139.448C149.611 146.07 137.818 151.665 133.038 148.471C125.395 143.365 123.631 125.126 123.908 114.796Z" fill="#DB2721"/>
<path fill-rule="evenodd" clip-rule="evenodd" d="M112.422 151.406C122.986 151.406 130.757 151.406 135.734 151.406C136.8 151.406 136.599 149.706 136.445 148.847C134.668 138.942 127.73 128.265 127.73 114.166L121.006 113C115.444 122.891 113.521 135.068 112.422 151.406Z" fill="#DDE3E9"/>
<path fill-rule="evenodd" clip-rule="evenodd" d="M110.097 141.378C105.345 150.857 101.35 157.681 98.1135 161.85L93.2271 160.792C96.3747 139.208 105.49 123.277 120.572 113H120.649L123.235 113C129.271 135.753 130.935 150.914 128.227 158.481H107.243C107.575 152.944 108.639 147.088 110.097 141.378H110.097Z" fill="#FF4133"/>
</g>
</g>
<path d="M164.712 64.0487L150.837 58.2674C150.414 58.0921 149.961 58.0018 149.504 58.0018C149.046 58.0018 148.593 58.0921 148.17 58.2674L134.295 64.0487C133.002 64.5834 132.156 65.8481 132.156 67.25C132.156 81.5948 140.431 91.5096 148.163 94.7326C149.016 95.0867 149.977 95.0867 150.83 94.7326C157.023 92.1528 166.844 83.2424 166.844 67.25C166.844 65.8481 165.998 64.5834 164.712 64.0487ZM149.507 90.2522L149.5 62.719L162.212 68.016C161.973 78.9571 156.279 86.8846 149.507 90.2522Z" fill="#CCCCCC"/>
<rect x="167" y="148" width="28" height="1" fill="#C4C4C4"/>
<rect x="194" y="148.887" width="28.8712" height="0.993803" transform="rotate(-75 194 148.887)" fill="#C4C4C4"/>
<g clip-path="url(#clip2)">
<rect width="19" height="19" transform="translate(160 117)" fill="white"/>
<path d="M175.042 118.583C176.352 118.583 177.417 119.649 177.417 120.958V132.042C177.417 133.351 176.352 134.417 175.042 134.417H163.959C162.649 134.417 161.584 133.351 161.584 132.042V120.958C161.584 119.649 162.649 118.583 163.959 118.583H175.042ZM175.042 117H163.959C161.773 117 160 118.773 160 120.958V132.042C160 134.227 161.773 136 163.959 136H175.042C177.229 136 179 134.227 179 132.042V120.958C179 118.773 177.229 117 175.042 117ZM168.709 123.333H167.917V121.75H168.709V122.542H170.292V123.333H169.5V124.125H168.709V123.333ZM170.292 132.833V132.042H169.5V132.833H170.292ZM169.5 120.958V120.167H167.917V120.958H168.709V121.75H169.5V120.958ZM175.834 120.167V124.917H175.042V124.125H171.875V120.167H175.834ZM175.042 123.333V120.958H172.667V123.333H175.042ZM163.959 124.917H163.167V125.708H164.75V124.917H163.959ZM163.959 127.292H164.75V128.083H165.542V125.708H164.75V126.5H163.167V128.083H163.959V127.292ZM167.917 128.083V129.667H168.709V128.083H167.917ZM171.084 120.167H170.292V122.542H171.084V120.167ZM171.084 124.125V123.333H170.292V124.125H171.084ZM173.459 122.542H174.25V121.75H173.459V122.542ZM165.542 121.75H164.75V122.542H165.542V121.75ZM167.125 120.167V124.125H163.167V120.167H167.125ZM166.334 120.958H163.959V123.333H166.334V120.958ZM173.459 124.917V125.708H172.667V124.917H171.084V125.708H170.292V124.917H167.917V124.125H167.125V124.917H166.334V125.708H167.125V127.292H167.917V126.5H168.709V128.083H169.5V126.5H171.875V127.292H170.292V128.083H171.875V128.875H172.667V126.5H173.459V127.292H174.25V128.875H175.042V128.083H175.834V127.292H175.042V126.5H174.25V125.708H175.042V124.917H173.459ZM164.75 131.25H165.542V130.458H164.75V131.25ZM163.167 128.875H167.125V132.833H163.167V128.875ZM163.959 132.042H166.334V129.667H163.959V132.042ZM173.459 129.667V128.875H172.667V129.667H173.459ZM173.459 130.458H172.667V131.25H171.875V130.458H171.084V129.667H171.875V128.875H170.292V128.083H169.5V129.667H168.709V130.458H167.917V132.833H168.709V132.042H169.5V131.25H171.084V132.833H171.875V132.042H172.667V132.833H174.25V132.042H175.042V131.25H173.459V130.458ZM166.334 128.083H167.125V127.292H166.334V128.083ZM174.25 129.667V130.458H175.042V131.25H175.834V128.875H175.042V129.667H174.25ZM175.834 132.833V132.042H175.042V132.833H175.834ZM175.834 126.5V125.708H175.042V126.5H175.834Z" fill="#5C5C5C"/>
</g>
<defs>
<clipPath id="clip0">
<rect width="131" height="104" fill="white" transform="translate(50.0005 118)"/>
</clipPath>
<clipPath id="clip1">
<rect width="78" height="63" fill="white" transform="translate(85.0005 113)"/>
</clipPath>
<clipPath id="clip2">
<rect width="19" height="19" fill="white" transform="translate(160 117)"/>
</clipPath>
</defs>
</svg>
