<?xml version="1.0" encoding="utf-8"?>
<svg width="299" height="223" viewBox="0 0 299 223" fill="none" xmlns="http://www.w3.org/2000/svg">
  <path fill-rule="evenodd" clip-rule="evenodd" d="M 121.531 109.566 C 119.667 107.382 118.406 104.705 118.617 101.706 C 119.224 93.063 131.271 94.965 133.615 99.327 C 135.958 103.688 135.68 114.753 132.651 115.533 C 131.443 115.843 128.87 115.082 126.251 113.506 L 127.644 118.838 L 120.144 118.838 L 121.531 109.566 Z" fill="#B28B67"/>
  <path fill-rule="evenodd" clip-rule="evenodd" d="M 126.967 102.63 C 127.348 107.778 128.357 110.352 129.994 110.352 C 132.449 110.352 134.532 108.842 135.61 108.842 C 136.395 108.842 136.22 109.794 135.699 110.5 C 135.27 111.083 133.178 111.644 133.178 112.547 C 133.178 113.45 134.83 112.751 134.83 113.287 C 134.83 114.173 135.121 115.838 133.534 115.838 C 131.928 115.838 127.324 115.271 126.535 112.962 C 126.025 111.472 125.696 108.383 125.547 103.697 C 125.449 103.686 125.35 103.68 125.25 103.68 C 123.874 103.68 122.758 104.761 122.758 106.094 C 122.758 106.771 123.046 107.383 123.509 107.821 C 122.932 108.609 122.286 109.433 121.546 110.282 C 118.765 108.666 116.701 103.933 119.42 99.387 C 120.171 97.16 121.873 95.971 123.882 95.418 C 125.51 94.759 127.2 94.684 128.626 95.08 C 131.422 95.312 133.919 96.138 134.627 96.629 C 134.627 99.193 134.114 99.954 129.733 99.887 C 128.656 100.438 127.829 101.386 126.967 102.63 Z" fill="#191847"/>
  <g opacity="0.345889" transform="matrix(1, 0, 0, 1, 0.143551, 0.838468)">
    <path opacity="0.345889" fill-rule="evenodd" clip-rule="evenodd" d="M90.4972 156.101C93.5379 128.032 256.68 73.8568 286.967 100.443C317.254 127.029 288.137 176.924 224.667 189.701C161.197 202.478 87.4566 184.17 90.4972 156.101Z" fill="#12C2E9" fill-opacity="0.67"/>
    <path opacity="0.345889" d="M190.835 174.395C190.678 173.024 190 171.529 188.804 169.929C187.61 168.332 185.921 166.655 183.786 164.923C179.515 161.458 173.512 157.811 166.274 154.161C151.802 146.864 132.463 139.591 112.35 133.765C92.2378 127.939 71.3759 123.567 53.8604 122.059C45.1019 121.306 37.196 121.27 30.6465 122.12C24.085 122.972 18.9462 124.705 15.6625 127.439C2.25058 138.605 -2.74551 155.914 2.61804 171.768C7.97852 187.612 23.7299 202.109 52.0275 207.511C80.3686 212.922 115.825 210.477 143.857 203.697C157.873 200.307 169.998 195.842 178.437 190.757C182.657 188.214 185.93 185.53 188.06 182.771C190.187 180.017 191.157 177.212 190.835 174.395Z" fill="#A6FFCB" stroke="black"/>
  </g>
  <path d="M 256.675 77.222 C 248.31 77.222 241.528 73.552 241.528 69.025 C 241.528 64.498 248.31 60.828 256.675 60.828 C 265.041 60.828 271.822 64.498 271.822 69.025 C 271.822 73.552 265.041 77.222 256.675 77.222 Z" fill="#F2F2F2"/>
  <path fill-rule="evenodd" clip-rule="evenodd" d="M 239.033 74.671 C 239.033 64.612 246.932 56.457 256.675 56.457 C 266.418 56.457 274.317 64.612 274.317 74.671" fill="#DDE3E9"/>
  <path d="M 255.784 0.838 L 257.566 0.838 L 257.566 59.126 L 255.784 59.126 L 255.784 0.838 Z" fill="#DDE3E9"/>
  <g opacity="0.7" transform="matrix(1, 0, 0, 1, 0.143551, 0.838468)">
    <g opacity="0.7">
      <path opacity="0.7" d="M228.91 57.9232C222.657 57.9232 217.588 54.9616 217.588 51.3083C217.588 47.6551 222.657 44.6935 228.91 44.6935C235.163 44.6935 240.232 47.6551 240.232 51.3083C240.232 54.9616 235.163 57.9232 228.91 57.9232Z" fill="#F2F2F2"/>
      <path opacity="0.7" fill-rule="evenodd" clip-rule="evenodd" d="M215.723 55.8649C215.723 47.7466 221.627 41.1655 228.91 41.1655C236.193 41.1655 242.097 47.7466 242.097 55.8649" fill="#DDE3E9"/>
    </g>
    <path opacity="0.7" d="M227.841 0H229.623V49.5443H227.841V0Z" fill="#DDE3E9"/>
  </g>
  <path d="M 75.089 86.17 L 68.472 79.401 C 67.359 78.263 65.553 78.262 64.44 79.4 C 64.439 79.4 64.439 79.401 64.439 79.401 L 46.821 97.418 C 45.752 98.511 45.152 99.993 45.152 101.539 L 45.152 220.874" stroke="#CBCBCB" stroke-width="8"/>
  <path d="M 35.884 220.509 L 54.774 220.509 C 55.364 220.509 55.843 220.999 55.843 221.602 L 55.843 221.966 C 55.843 222.57 55.364 223.059 54.774 223.059 L 35.884 223.059 C 35.294 223.059 34.815 222.57 34.815 221.966 L 34.815 221.602 C 34.815 220.999 35.294 220.509 35.884 220.509 Z" fill="#AFB9C5"/>
  <path fill-rule="evenodd" clip-rule="evenodd" d="M 71.109 82.198 C 66.516 86.893 66.516 94.505 71.109 99.2 L 78.166 106.412 L 94.799 89.411 L 87.742 82.198 C 83.149 77.504 75.702 77.504 71.109 82.198 Z" fill="#C5CFD6"/>
  <path d="M 87.838 99.391 C 83.245 104.085 78.788 107.141 77.884 106.217 C 76.979 105.292 79.969 100.737 84.562 96.042 C 89.155 91.347 93.612 88.291 94.517 89.216 C 95.421 90.14 92.431 94.696 87.838 99.391 Z" fill="#F2F2F2"/>
  <path fill-rule="evenodd" clip-rule="evenodd" d="M 86.002 120.403 C 82.854 128.05 77.503 133.362 74.669 141.313 C 72.988 146.028 72.287 151.154 72.245 156.405 C 72.222 159.257 72.27 162.11 72.283 164.962 C 72.296 167.743 72.37 170.506 72.601 173.27 C 72.833 176.048 73.093 178.793 73.207 181.588 C 73.297 183.765 73.337 186.299 74.06 188.285 C 74.634 189.865 76.094 190.096 76.481 188.18 C 76.696 187.115 76.669 185.926 76.645 184.831 C 76.615 183.427 76.535 182.025 76.494 180.62 C 76.33 174.985 76.543 169.349 76.432 163.712 C 76.323 158.205 75.631 152.703 76.397 147.232 C 77.03 142.714 78.638 138.835 80.485 135.116 C 82.263 131.537 84.197 128.046 85.399 123.976 C 85.744 122.807 86.01 121.595 86.138 120.338 C 86.082 120.312 86.037 120.334 86.002 120.403 Z" fill="#C1DEE2"/>
  <path fill-rule="evenodd" clip-rule="evenodd" d="M 86.861 135.488 C 86.237 135.949 85.889 136.622 85.468 137.286 C 84.944 138.111 84.328 138.857 83.804 139.683 C 82.711 141.406 81.752 143.234 80.756 145.026 C 78.866 148.428 77.431 152.054 76.72 155.99 C 75.983 160.069 75.784 164.279 75.475 168.419 C 75.147 172.807 74.817 177.227 74.774 181.631 C 74.754 183.604 74.65 185.699 74.882 187.659 C 75.026 188.879 75.565 189.918 76.779 189.908 C 79.358 189.887 80.569 186.968 81.075 184.573 C 81.819 181.047 81.968 177.301 81.85 173.695 C 81.707 169.347 80.969 165.064 80.65 160.732 C 80.311 156.147 80.502 151.643 82.045 147.325 C 82.824 145.143 83.728 143.014 84.54 140.847 C 84.886 139.924 85.169 138.976 85.636 138.117 C 86.156 137.161 86.801 136.293 87.208 135.264 C 87.092 135.339 86.976 135.414 86.861 135.488 Z" fill="#89C5CC"/>
  <path fill-rule="evenodd" clip-rule="evenodd" d="M 57.15 126.345 C 57.071 126.282 56.992 126.219 56.913 126.156 C 57.141 127.137 57.552 127.934 57.867 128.831 C 58.149 129.637 58.293 130.549 58.483 131.43 C 58.93 133.5 59.447 135.523 59.869 137.61 C 60.705 141.74 60.547 146.189 59.999 150.771 C 59.481 155.1 58.662 159.422 58.272 163.749 C 57.948 167.338 57.809 171.039 58.118 174.463 C 58.327 176.788 59.015 179.565 60.887 179.33 C 61.769 179.22 62.229 178.135 62.414 176.911 C 62.712 174.944 62.774 172.876 62.89 170.921 C 63.149 166.556 63.201 162.204 63.252 157.884 C 63.3 153.808 63.433 149.651 63.167 145.678 C 62.91 141.844 62.106 138.39 60.957 135.202 C 60.352 133.523 59.775 131.804 59.095 130.203 C 58.769 129.436 58.37 128.757 58.044 127.99 C 57.782 127.373 57.573 126.74 57.15 126.345 Z" fill="#C1DEE2"/>
  <path fill-rule="evenodd" clip-rule="evenodd" d="M 86.064 148.124 C 85.723 147.539 84.972 149.469 84.858 149.712 C 84.906 149.591 84.955 149.47 85.004 149.35 C 84.327 150.501 83.707 151.698 83.322 153.018 C 82.941 154.324 82.614 155.656 82.257 156.971 C 81.586 159.439 80.72 161.837 80.113 164.327 C 79.52 166.753 79.371 169.138 79.514 171.648 C 79.663 174.257 79.755 176.905 79.581 179.512 C 79.498 180.757 79.102 181.917 78.831 183.116 C 78.559 184.316 78.345 185.532 78.024 186.717 C 77.95 186.562 77.941 187.079 77.941 187.118 C 77.943 187.414 77.983 187.662 78.077 187.943 C 78.316 188.665 78.764 189.278 79.446 189.477 C 80.678 189.837 81.821 188.691 82.219 187.482 C 82.789 185.746 83.103 183.829 83.374 182.005 C 83.623 180.332 83.682 178.65 83.608 176.954 C 83.462 173.61 82.87 170.31 82.71 166.967 C 82.536 163.328 83.241 159.908 83.832 156.366 C 84.116 154.659 84.388 152.968 84.942 151.342 C 85.166 150.683 85.458 150.102 85.765 149.494 C 85.939 149.148 86.292 148.531 86.064 148.124 Z" fill="#C1DEE2"/>
  <path fill-rule="evenodd" clip-rule="evenodd" d="M 76.069 142.439 C 76.211 146.608 76.454 150.746 76.998 154.872 C 77.553 159.081 78.191 163.277 78.725 167.491 C 79.244 171.592 79.789 175.762 79.717 179.921 C 79.663 182.984 80.16 188.166 76.832 189.678 C 73.46 191.21 72.737 184.671 72.516 182.513 C 72.092 178.372 72.229 174.188 72.435 170.024 C 72.646 165.751 72.999 161.5 73.436 157.243 C 73.922 152.514 74.303 147.764 74.609 143.022 C 74.76 140.676 74.798 138.334 74.756 135.988 C 74.716 133.774 74.799 131.537 75.569 129.435 C 75.609 129.465 75.649 129.495 75.69 129.524" fill="#69A1AC"/>
  <path fill-rule="evenodd" clip-rule="evenodd" d="M 58.666 155.648 C 59.272 156.551 59.883 157.445 60.456 158.401 C 61.48 160.112 62.407 162.015 62.685 164.461 C 63.268 169.581 62.801 175.11 62.688 180.387 C 62.665 181.465 62.798 182.511 62.382 183.537 C 62.005 184.467 61.3 185.176 60.629 185.173 C 59.19 185.164 59.41 181.564 59.408 179.98 C 59.403 177.203 59.708 174.397 59.682 171.623 C 59.655 168.874 59.492 166.118 59.102 163.507 C 58.707 160.865 58.129 158.327 57.366 155.959 C 57.26 155.631 56.501 153.092 57.219 153.529" fill="#89C5CC"/>
  <path fill-rule="evenodd" clip-rule="evenodd" d="M 65.017 128.342 C 65.962 128.342 65.956 133.16 65.985 133.779 C 66.087 136.012 66.063 138.246 66.128 140.48 C 66.271 145.355 66.445 150.273 67.162 155.091 C 67.547 157.685 67.994 160.267 68.475 162.842 C 68.958 165.423 69.605 168.002 69.923 170.616 C 70.227 173.13 70.055 175.692 70.013 178.218 C 69.972 180.759 69.896 183.305 69.571 185.824 C 69.49 186.445 69.396 187.065 69.295 187.683 C 69.211 188.198 69.26 188.836 69.118 189.326 C 68.89 190.109 67.914 190.366 67.256 190.243 C 65.477 189.911 64.34 187.628 63.733 185.959 C 62.956 183.829 62.544 181.518 62.138 179.272 C 61.677 176.728 61.408 174.146 61.281 171.556 C 61.024 166.293 61.354 161.024 61.723 155.777 C 61.928 152.859 62.165 149.955 62.528 147.055 C 62.889 144.167 63.352 141.293 63.654 138.397 C 63.873 136.293 64.089 134.185 64.231 132.073 C 64.265 131.569 64.293 128.342 65.017 128.342 Z" fill="#69A1AC"/>
  <path fill-rule="evenodd" clip-rule="evenodd" d="M 66.201 163.365 C 66.355 158.306 68.344 136.087 68.797 129.969 C 68.91 128.438 70 122.063 70.141 120.328 C 70.524 120.818 70.491 128.455 70.487 130.209 C 70.483 131.945 70.693 133.652 70.802 135.379 C 70.912 137.14 73.46 159.89 73.791 161.583 C 74.448 164.95 74.889 168.406 75.228 171.849 C 75.559 175.205 76.073 178.745 75.63 182.119 C 75.529 182.895 75.368 183.66 75.106 184.373 C 74.822 185.144 74.628 185.857 74.401 186.663 C 74.035 187.963 73.373 189.103 72.357 189.639 C 70.272 190.739 69.152 188.249 68.585 186.082 C 67.679 182.62 67.097 179.102 66.824 175.467 C 66.523 171.445 66.077 167.415 66.201 163.365 Z" fill="#89C5CC"/>
  <path d="M 56.557 178.251 L 87.564 178.251 C 87.957 178.251 88.276 178.577 88.276 178.98 L 88.276 210.673 C 88.276 211.076 87.957 211.402 87.564 211.402 L 56.557 211.402 C 56.163 211.402 55.844 211.076 55.844 210.673 L 55.844 178.98 C 55.844 178.577 56.163 178.251 56.557 178.251 Z" fill="white"/>
  <path d="M 88.989 181.894 L 91.128 181.894 C 91.521 181.894 91.84 182.22 91.84 182.622 L 91.84 222.331 C 91.84 222.733 91.521 223.059 91.128 223.059 L 88.989 223.059 C 88.595 223.059 88.276 222.733 88.276 222.331 L 88.276 182.622 C 88.276 182.22 88.595 181.894 88.989 181.894 Z" fill="#C5CFD6"/>
  <path d="M 71.17 181.894 L 73.308 181.894 C 73.702 181.894 74.021 182.22 74.021 182.622 L 74.021 222.331 C 74.021 222.733 73.702 223.059 73.308 223.059 L 71.17 223.059 C 70.776 223.059 70.457 222.733 70.457 222.331 L 70.457 182.622 C 70.457 182.22 70.776 181.894 71.17 181.894 Z" fill="#C5CFD6"/>
  <path d="M 52.993 181.894 L 55.131 181.894 C 55.525 181.894 55.844 182.22 55.844 182.622 L 55.844 222.331 C 55.844 222.733 55.525 223.059 55.131 223.059 L 52.993 223.059 C 52.599 223.059 52.28 222.733 52.28 222.331 L 52.28 182.622 C 52.28 182.22 52.599 181.894 52.993 181.894 Z" fill="#C5CFD6"/>
  <path fill-rule="evenodd" clip-rule="evenodd" d="M 233.04 149.838 L 181.248 149.838 L 168.144 149.838 L 168.144 222.576 L 181.248 222.576 L 181.248 165.225 L 233.04 165.225 L 233.04 222.576 L 246.144 222.576 L 246.144 149.838 L 233.04 149.838 Z" fill="#F2F2F2"/>
  <g clip-path="url(#clip0)" transform="matrix(1, 0, 0, 1, 0.143551, 0.838468)">
    <path fill-rule="evenodd" clip-rule="evenodd" d="M114.48 137L127.739 182.248L137.412 215.598H144.468L134.188 137H114.48Z" fill="#191847"/>
    <path fill-rule="evenodd" clip-rule="evenodd" d="M110.934 137C110.628 160.321 109.582 173.041 109.26 175.16C108.938 177.279 104.069 190.759 94.6538 215.598H101.963C113.949 191.769 120.641 178.289 122.036 175.16C123.432 172.031 127.74 159.311 134.228 137H110.934Z" fill="#2F3676"/>
    <path fill-rule="evenodd" clip-rule="evenodd" d="M94.0005 222L94.3662 214.531H102.046C105.688 217.021 110.442 219.036 116.309 220.577V222H102.412L97.6575 221.289V222H94.0005Z" fill="#191847"/>
    <path fill-rule="evenodd" clip-rule="evenodd" d="M136.422 222L136.788 214.531H144.468C148.109 217.021 152.864 219.036 158.73 220.577V222H144.834L140.079 221.289V222H136.422Z" fill="#191847"/>
    <g clip-path="url(#clip1)">
      <path fill-rule="evenodd" clip-rule="evenodd" d="M145.329 139.149L156.369 133.788C158.303 131.657 160.17 130.037 161.971 128.929C162.51 128.74 163.43 128.682 162.448 130.268C161.467 131.853 160.499 133.57 160.891 134.125C161.283 134.681 162.419 134.068 162.868 134.971C163.168 135.574 161.252 136.294 157.122 137.133L148.854 144.143L145.329 139.149ZM100.694 140.626L106.938 141.995C100.659 154.934 97.2917 161.792 96.8361 162.568C95.8109 164.315 96.7674 167.516 97.1207 169.202C94.9042 169.772 95.7783 166.083 92.9733 166.854C90.413 167.557 88.2422 169.361 85.8548 166.928C85.5613 166.628 85.3464 165.693 86.3472 165.214C88.8404 164.019 92.5238 161.782 93.1211 160.913C93.9356 159.729 96.4601 152.966 100.694 140.626Z" fill="#B28B67"/>
      <path fill-rule="evenodd" clip-rule="evenodd" d="M123.908 114.796L126.542 114.297C132.281 120.452 134.623 135.239 138.447 137.197C142.063 139.047 147.188 137.257 153.281 134.839L155.147 139.448C149.611 146.07 137.818 151.665 133.038 148.471C125.395 143.365 123.631 125.126 123.908 114.796Z" fill="#DB2721"/>
      <path fill-rule="evenodd" clip-rule="evenodd" d="M112.422 151.406C122.986 151.406 130.757 151.406 135.734 151.406C136.8 151.406 136.599 149.706 136.445 148.847C134.668 138.942 127.73 128.265 127.73 114.166L121.006 113C115.444 122.891 113.521 135.068 112.422 151.406Z" fill="#DDE3E9"/>
      <path fill-rule="evenodd" clip-rule="evenodd" d="M110.097 141.378C105.345 150.857 101.35 157.681 98.1135 161.85L93.2271 160.792C96.3747 139.208 105.49 123.277 120.572 113H120.649L123.235 113C129.271 135.753 130.935 150.914 128.227 158.481H107.243C107.575 152.944 108.639 147.088 110.097 141.378H110.097Z" fill="#FF4133"/>
    </g>
  </g>
  <path d="M 164.856 64.887 L 150.981 59.106 C 150.558 58.93 150.105 58.84 149.648 58.84 C 149.19 58.84 148.737 58.93 148.314 59.106 L 134.439 64.887 C 133.146 65.422 132.3 66.686 132.3 68.088 C 132.3 82.433 140.575 92.348 148.307 95.571 C 149.16 95.925 150.121 95.925 150.974 95.571 C 157.167 92.991 166.988 84.081 166.988 68.088 C 166.988 66.686 166.142 65.422 164.856 64.887 Z M 149.651 91.09 L 149.644 63.557 L 162.356 68.854 C 162.117 79.795 156.423 87.723 149.651 91.09 Z" fill="#CCCCCC"/>
  <rect x="167.144" y="148.838" width="28" height="1" fill="#C4C4C4"/>
  <rect x="194" y="148.887" width="28.871" height="0.994" transform="matrix(0.258819, -0.965926, 0.965926, 0.258819, 0.118864, 298.580292)" fill="#C4C4C4"/>
  <g clip-path="url(#clip2)" transform="matrix(1, 0, 0, 1, 0.143551, 0.838468)">
    <rect width="19" height="19" transform="translate(160 117)" fill="white"/>
    <path d="M175.042 118.583C176.352 118.583 177.417 119.649 177.417 120.958V132.042C177.417 133.351 176.352 134.417 175.042 134.417H163.959C162.649 134.417 161.584 133.351 161.584 132.042V120.958C161.584 119.649 162.649 118.583 163.959 118.583H175.042ZM175.042 117H163.959C161.773 117 160 118.773 160 120.958V132.042C160 134.227 161.773 136 163.959 136H175.042C177.229 136 179 134.227 179 132.042V120.958C179 118.773 177.229 117 175.042 117ZM168.709 123.333H167.917V121.75H168.709V122.542H170.292V123.333H169.5V124.125H168.709V123.333ZM170.292 132.833V132.042H169.5V132.833H170.292ZM169.5 120.958V120.167H167.917V120.958H168.709V121.75H169.5V120.958ZM175.834 120.167V124.917H175.042V124.125H171.875V120.167H175.834ZM175.042 123.333V120.958H172.667V123.333H175.042ZM163.959 124.917H163.167V125.708H164.75V124.917H163.959ZM163.959 127.292H164.75V128.083H165.542V125.708H164.75V126.5H163.167V128.083H163.959V127.292ZM167.917 128.083V129.667H168.709V128.083H167.917ZM171.084 120.167H170.292V122.542H171.084V120.167ZM171.084 124.125V123.333H170.292V124.125H171.084ZM173.459 122.542H174.25V121.75H173.459V122.542ZM165.542 121.75H164.75V122.542H165.542V121.75ZM167.125 120.167V124.125H163.167V120.167H167.125ZM166.334 120.958H163.959V123.333H166.334V120.958ZM173.459 124.917V125.708H172.667V124.917H171.084V125.708H170.292V124.917H167.917V124.125H167.125V124.917H166.334V125.708H167.125V127.292H167.917V126.5H168.709V128.083H169.5V126.5H171.875V127.292H170.292V128.083H171.875V128.875H172.667V126.5H173.459V127.292H174.25V128.875H175.042V128.083H175.834V127.292H175.042V126.5H174.25V125.708H175.042V124.917H173.459ZM164.75 131.25H165.542V130.458H164.75V131.25ZM163.167 128.875H167.125V132.833H163.167V128.875ZM163.959 132.042H166.334V129.667H163.959V132.042ZM173.459 129.667V128.875H172.667V129.667H173.459ZM173.459 130.458H172.667V131.25H171.875V130.458H171.084V129.667H171.875V128.875H170.292V128.083H169.5V129.667H168.709V130.458H167.917V132.833H168.709V132.042H169.5V131.25H171.084V132.833H171.875V132.042H172.667V132.833H174.25V132.042H175.042V131.25H173.459V130.458ZM166.334 128.083H167.125V127.292H166.334V128.083ZM174.25 129.667V130.458H175.042V131.25H175.834V128.875H175.042V129.667H174.25ZM175.834 132.833V132.042H175.042V132.833H175.834ZM175.834 126.5V125.708H175.042V126.5H175.834Z" fill="#5C5C5C"/>
  </g>
  <defs>
    <clipPath id="clip0">
      <rect width="131" height="104" fill="white" transform="translate(50.0005 118)"/>
    </clipPath>
    <clipPath id="clip1">
      <rect width="78" height="63" fill="white" transform="translate(85.0005 113)"/>
    </clipPath>
    <clipPath id="clip2">
      <rect width="19" height="19" fill="white" transform="translate(160 117)"/>
    </clipPath>
  </defs>
</svg>