<svg width="62" height="50" viewBox="0 0 62 50" fill="none" xmlns="http://www.w3.org/2000/svg">
<path d="M24.8 33.875H24.3V34.375V40.29C24.3 43.1998 22.3296 45.8415 19.5605 46.2957L19.5604 46.2957C15.9895 46.8819 12.9 44.122 12.9 40.625V4.6875C12.9 3.15149 12.4693 1.7266 11.7448 0.5H43.4C48.2486 0.5 52.2 4.47743 52.2 9.375V33.875H24.8ZM51.15 49.5H22.8962C26.154 47.8924 28.4 44.5164 28.4 40.625V38H60.45C61.0265 38 61.5 38.4716 61.5 39.0625C61.5 44.8312 56.8628 49.5 51.15 49.5ZM0.5 4.6875C0.5 2.37489 2.36564 0.5 4.65 0.5C6.93436 0.5 8.8 2.37489 8.8 4.6875V12H1.55C0.973546 12 0.5 11.5284 0.5 10.9375V4.6875Z" stroke="#14213D"/>
</svg>
