<svg width="70" height="68" viewBox="0 0 70 68" fill="none" xmlns="http://www.w3.org/2000/svg">
<path d="M63.5917 11.58L63.5921 11.5801C65.8426 12.489 67.3125 14.6338 67.3125 17.0001C67.3125 46.1577 48.8856 62.368 37.3286 67.045C35.8355 67.6473 34.1515 67.6474 32.6584 67.0452C18.2211 61.1994 2.6875 43.1628 2.6875 17.0001C2.6875 14.6342 4.15683 12.4897 6.42071 11.5805L6.42197 11.58L32.6713 0.955271C32.6714 0.955217 32.6715 0.955163 32.6717 0.955108C33.4115 0.657024 34.2051 0.503418 35.0068 0.503418C35.8087 0.503418 36.6025 0.65708 37.3424 0.955271L63.5917 11.58ZM34.5137 59.2745L34.5139 60.0711L35.2312 59.7245C48.2184 53.4501 59.0935 38.7061 59.5487 18.4191L59.5564 18.074L59.2364 17.9445L35.1876 8.2093L34.4998 7.93086L34.5 8.6729L34.5137 59.2745Z" stroke="#444444"/>
</svg>
