<svg width="53" height="53" viewBox="0 0 53 53" fill="none" xmlns="http://www.w3.org/2000/svg">
<path d="M44.7188 12.75H1.65625C1.01731 12.75 0.5 12.2327 0.5 11.5938V4.96875C0.5 4.32981 1.01731 3.8125 1.65625 3.8125H44.7188C45.3577 3.8125 45.875 4.32981 45.875 4.96875V11.5938C45.875 12.2327 45.3577 12.75 44.7188 12.75ZM8.28125 22.0312H51.3438C51.9827 22.0312 52.5 22.5486 52.5 23.1875V29.8125C52.5 30.4514 51.9827 30.9688 51.3438 30.9688H8.28125C7.64231 30.9688 7.125 30.4514 7.125 29.8125V23.1875C7.125 22.5486 7.64231 22.0312 8.28125 22.0312ZM1.65625 40.25H44.7188C45.3577 40.25 45.875 40.7673 45.875 41.4062V48.0312C45.875 48.6702 45.3577 49.1875 44.7188 49.1875H1.65625C1.01731 49.1875 0.5 48.6702 0.5 48.0312V41.4062C0.5 40.7673 1.01731 40.25 1.65625 40.25Z" stroke="#444444"/>
</svg>
