<svg width="33" height="43" viewBox="0 0 33 43" fill="none" xmlns="http://www.w3.org/2000/svg">
<g clip-path="url(#clip0)">
<path d="M28.2188 13.4375H4.03125C1.80482 13.4375 0 15.2423 0 17.4688V36.2812C0 38.5077 1.80482 40.3125 4.03125 40.3125H5.375V41.6562C5.375 42.3987 5.97633 43 6.71875 43H9.40625C10.1487 43 10.75 42.3987 10.75 41.6562V40.3125H21.5V41.6562C21.5 42.3987 22.1013 43 22.8438 43H25.5312C26.2737 43 26.875 42.3987 26.875 41.6562V40.3125H28.2188C30.4452 40.3125 32.25 38.5077 32.25 36.2812V17.4688C32.25 15.2423 30.4452 13.4375 28.2188 13.4375ZM26.875 31.5781C26.875 31.9493 26.5743 32.25 26.2031 32.25H6.04688C5.67566 32.25 5.375 31.9493 5.375 31.5781V30.2344C5.375 29.8632 5.67566 29.5625 6.04688 29.5625H26.2031C26.5743 29.5625 26.875 29.8632 26.875 30.2344V31.5781ZM26.875 23.5156C26.875 23.8868 26.5743 24.1875 26.2031 24.1875H6.04688C5.67566 24.1875 5.375 23.8868 5.375 23.5156V22.1719C5.375 21.8007 5.67566 21.5 6.04688 21.5H26.2031C26.5743 21.5 26.875 21.8007 26.875 22.1719V23.5156ZM12.0938 4.03125H20.1562V10.75H24.1875V4.03125C24.1875 1.80482 22.3827 0 20.1562 0H12.0938C9.86732 0 8.0625 1.80482 8.0625 4.03125V10.75H12.0938V4.03125Z" fill="#444444" fill-opacity="0.5"/>
</g>
<defs>
<clipPath id="clip0">
<rect width="32.25" height="43" fill="white"/>
</clipPath>
</defs>
</svg>
