<svg width="38" height="43" viewBox="0 0 38 43" fill="none" xmlns="http://www.w3.org/2000/svg">
<g clip-path="url(#clip0)">
<path d="M33.4916 0H4.019C1.80018 0 0 1.80566 0 4.03125V38.9688C0 41.1943 1.80018 43 4.019 43H33.4916C35.7105 43 37.5106 41.1943 37.5106 38.9688V4.03125C37.5106 1.80566 35.7105 0 33.4916 0ZM18.7553 40.3125C17.2733 40.3125 16.076 39.1115 16.076 37.625C16.076 36.1385 17.2733 34.9375 18.7553 34.9375C20.2373 34.9375 21.4347 36.1385 21.4347 37.625C21.4347 39.1115 20.2373 40.3125 18.7553 40.3125ZM33.4916 31.2422C33.4916 31.7965 33.0395 32.25 32.4869 32.25H5.02375C4.47113 32.25 4.019 31.7965 4.019 31.2422V5.03906C4.019 4.48477 4.47113 4.03125 5.02375 4.03125H32.4869C33.0395 4.03125 33.4916 4.48477 33.4916 5.03906V31.2422Z" fill="#444444" fill-opacity="0.5"/>
</g>
<defs>
<clipPath id="clip0">
<rect width="37.5106" height="43" fill="white"/>
</clipPath>
</defs>
</svg>
