<svg width="75" height="60" viewBox="0 0 75 60" fill="none" xmlns="http://www.w3.org/2000/svg">
<path d="M59.244 26.9619C59.244 26.9619 59.2439 26.9618 59.2439 26.9618C58.8319 26.8011 57.9729 26.5897 57.0054 26.9621C57.0049 26.9623 57.0045 26.9625 57.004 26.9626L43.5069 32.235L59.244 26.9619ZM59.244 26.9619L72.7431 32.235C72.7431 32.235 72.7432 32.235 72.7433 32.235C73.8211 32.6582 74.5 33.6319 74.5 34.6875C74.5 49.0319 65.1038 57.0026 59.2461 59.2873C58.8176 59.4503 57.9707 59.6595 57.0051 59.2878C49.6687 56.4189 41.75 47.5537 41.75 34.6875C41.75 33.6321 42.4287 32.6585 43.5061 32.2353L59.244 26.9619ZM57.625 54.1875V54.9778L58.3392 54.6393C62.5218 52.6568 69.1451 46.8555 69.8154 36.4305L69.8388 36.0657L69.4983 35.9327L58.3069 31.5616L57.625 31.2953V32.0273V54.1875ZM40.75 15C40.75 23.009 34.259 29.5 26.25 29.5C18.241 29.5 11.75 23.009 11.75 15C11.75 6.99099 18.241 0.5 26.25 0.5C34.259 0.5 40.75 6.99099 40.75 15ZM48.1108 59.3458C47.7125 59.4453 47.2984 59.5 46.875 59.5H5.625C2.79567 59.5 0.5 57.2043 0.5 54.375V49.5C0.5 41.0808 7.33083 34.25 15.75 34.25H17.5988C20.2475 35.4455 23.1664 36.125 26.25 36.125C29.3329 36.125 32.2633 35.4458 34.9017 34.25H36.75C36.8398 34.25 36.9311 34.2598 37.0398 34.2752C37.0182 34.398 37 34.5377 37 34.6875C37 45.6058 41.9903 54.1615 48.1108 59.3458Z" stroke="#444444"/>
</svg>
