<svg width="43" height="39" viewBox="0 0 43 39" fill="none" xmlns="http://www.w3.org/2000/svg">
<path d="M38.7336 8.75H6.71875C5.97633 8.75 5.375 8.14867 5.375 7.40625C5.375 6.66383 5.97633 6.0625 6.71875 6.0625H38.9688C39.7112 6.0625 40.3125 5.46117 40.3125 4.71875C40.3125 2.49232 38.5077 0.6875 36.2812 0.6875H5.375C2.40615 0.6875 0 3.09365 0 6.0625V32.9375C0 35.9063 2.40615 38.3125 5.375 38.3125H38.7336C41.0868 38.3125 43 36.5043 43 34.2812V12.7812C43 10.5582 41.0868 8.75 38.7336 8.75ZM34.9375 26.2188C33.4535 26.2188 32.25 25.0153 32.25 23.5312C32.25 22.0472 33.4535 20.8438 34.9375 20.8438C36.4215 20.8438 37.625 22.0472 37.625 23.5312C37.625 25.0153 36.4215 26.2188 34.9375 26.2188Z" fill="#444444" fill-opacity="0.5"/>
</svg>
